<?xml version="1.0" encoding="UTF-8" standalone="no"?>
<!DOCTYPE svg PUBLIC "-//W3C//DTD SVG 1.1//EN" "http://www.w3.org/Graphics/SVG/1.1/DTD/svg11.dtd">
<svg width="100%" height="100%" viewBox="0 0 1493 450" version="1.1" xmlns="http://www.w3.org/2000/svg" xmlns:xlink="http://www.w3.org/1999/xlink" xml:space="preserve" xmlns:serif="http://www.serif.com/" style="fill-rule:evenodd;clip-rule:evenodd;stroke-linecap:round;stroke-linejoin:round;stroke-miterlimit:1.5;">
    <g transform="matrix(1,0,0,1,-26658.6,-587.102)">
        <g id="Curve-Export" serif:id="Curve Export" transform="matrix(3.30959,0,0,0.997671,-16747.9,-3519.46)">
            <rect x="13115.4" y="4116.15" width="451.051" height="451.051" style="fill:none;"/>
            <g transform="matrix(1.09634,0,0,1.09795,-1281.34,-425.246)">
                <g transform="matrix(0.0714239,0,0,0.23659,12334,3283.31)">
                    <path d="M13300.7,5038.99C13310.4,5048.69 13330.2,5053.54 13360.3,5053.54C13390.3,5053.54 13410.1,5048.69 13419.8,5038.99C13426.4,5032.37 13429.8,5022.84 13429.8,5010.39L13429.8,4934.5L13460.9,4934.5L13460.9,5013.43C13460.9,5031 13455.4,5045.28 13444.4,5056.29C13429.5,5071.23 13401.4,5078.71 13360.3,5078.71C13319.1,5078.71 13291,5071.23 13276.1,5056.29C13265.1,5045.28 13259.6,5031 13259.6,5013.43L13259.6,4934.5L13290.9,4934.5L13290.9,5010.39C13290.9,5016.94 13291.6,5022.49 13293.2,5027.05C13294.8,5031.6 13297.3,5035.59 13300.7,5038.99Z" style="fill-rule:nonzero;"/>
                    <path d="M13498.7,5075.46L13498.7,5074.87L13585.7,5004.59L13500.4,4935.19L13500.4,4934.5L13544.4,4934.5L13610.3,4989.94L13676.9,4934.5L13719.4,4934.5L13719.4,4935.19L13633.8,5004.19L13721,5074.87L13721,5075.46L13676.9,5075.46L13609.5,5018.94L13541.2,5075.46L13498.7,5075.46Z" style="fill-rule:nonzero;"/>
                    <path d="M14063.2,5004.98C14063.2,5024.97 14057.1,5041.02 14045,5053.15C14030.1,5068.02 14003,5075.46 13963.5,5075.46L13860.4,5075.46L13860.4,4934.5L13963.5,4934.5C14002.9,4934.5 14030.1,4941.97 14045,4956.91C14057.1,4969.03 14063.2,4985.06 14063.2,5004.98ZM13891.6,5050.1L13962.9,5050.1C13992.3,5050.1 14011.7,5045.48 14020.9,5036.24C14028.1,5029.03 14031.7,5018.61 14031.7,5004.98C14031.7,4991.41 14028.1,4981.03 14020.9,4973.82C14011.6,4964.51 13992.3,4959.86 13962.9,4959.86L13891.6,4959.86L13891.6,5050.1Z" style="fill-rule:nonzero;"/>
                    <path d="M14144.8,4991.71L14293.9,4991.71L14293.9,5016.68L14144.8,5016.68L14144.8,5050.1L14296.8,5050.1L14296.8,5075.46L14113.8,5075.46L14113.8,4934.5L14296.8,4934.5L14296.8,4959.86L14144.8,4959.86L14144.8,4991.71Z" style="fill-rule:nonzero;"/>
                    <path d="M14442.2,5054.33C14460.9,5054.33 14474.5,5053.61 14482.9,5052.16C14491.3,5050.72 14497,5048.49 14500,5045.48C14502.6,5042.93 14503.9,5039.61 14503.9,5035.55C14503.9,5031.29 14502.7,5028.02 14500.4,5025.72C14498.9,5024.15 14496.4,5022.9 14493.1,5021.99C14489.8,5021.07 14483.9,5020.22 14475.5,5019.43C14467.1,5018.64 14454.6,5017.79 14438,5016.88C14419.5,5015.96 14404.7,5014.74 14393.6,5013.24C14382.5,5011.73 14374.2,5009.94 14368.6,5007.88C14363,5005.82 14358.5,5003.11 14355.1,4999.77C14349.8,4994.4 14347.1,4986.53 14347.1,4976.18C14347.1,4964.38 14350.4,4955.21 14356.9,4948.65C14360.5,4945.11 14365,4942.18 14370.6,4939.86C14376.2,4937.53 14384.5,4935.63 14395.5,4934.15C14406.4,4932.68 14419.8,4931.94 14435.7,4931.94C14472.3,4931.94 14501.5,4936.3 14523.2,4945.02L14523.2,4971.36C14512.4,4966.77 14498.9,4963.01 14482.7,4960.06C14466.6,4957.11 14450.9,4955.63 14435.7,4955.63C14417.9,4955.63 14405.1,4956.35 14397.2,4957.8C14389.4,4959.24 14384.1,4961.27 14381.5,4963.89C14379.2,4966.18 14378.1,4969.36 14378.1,4973.43C14378.1,4977.16 14379.1,4980.05 14381.1,4982.08C14383.4,4984.37 14388.5,4986.16 14396.3,4987.43C14404.1,4988.71 14418.9,4989.88 14440.7,4990.92C14460.3,4991.91 14475.9,4993.14 14487.3,4994.61C14498.7,4996.08 14507.2,4997.84 14512.7,4999.87C14518.3,5001.9 14522.8,5004.62 14526.2,5008.03C14532,5013.8 14534.8,5021.92 14534.8,5032.41C14534.8,5044.33 14531.6,5053.57 14525,5060.13C14522.3,5062.81 14519,5065.17 14515.1,5067.2C14511.2,5069.24 14506.1,5071.12 14499.8,5072.86C14493.6,5074.59 14485.6,5075.9 14475.9,5076.79C14466.2,5077.67 14455,5078.12 14442.2,5078.12C14422.9,5078.12 14404.3,5076.69 14386.5,5073.84C14368.6,5070.99 14354.2,5067.17 14343.3,5062.39L14343.3,5036.04C14353.7,5041.09 14368.7,5045.4 14388,5048.97C14407.4,5052.54 14425.5,5054.33 14442.2,5054.33Z" style="fill-rule:nonzero;"/>
                    <rect x="14588" y="4934.5" width="31.161" height="140.964" style="fill-rule:nonzero;"/>
                    <path d="M14767.2,4997.31L14885.8,4997.31L14885.8,5013.43C14885.8,5023.2 14884.6,5031.46 14882.2,5038.21C14879.7,5044.96 14875.9,5050.92 14870.8,5056.1C14855.7,5071.17 14826.5,5078.71 14783.2,5078.71C14769.4,5078.71 14757.2,5078.05 14746.5,5076.74C14735.8,5075.43 14726.9,5073.53 14719.8,5071.04C14712.6,5068.55 14706.8,5065.93 14702.2,5063.18C14697.6,5060.42 14693.5,5057.21 14689.8,5053.54C14677.5,5041.29 14671.4,5025.1 14671.4,5004.98C14671.4,4984.8 14677.5,4968.58 14689.8,4956.32C14706.4,4939.68 14737.6,4931.35 14783.2,4931.35C14803.4,4931.35 14821.7,4932.86 14837.9,4935.88C14854.1,4938.89 14866.8,4942.72 14876,4947.38L14876,4975.98C14865.3,4970.15 14851.8,4965.45 14835.6,4961.88C14819.3,4958.3 14801.8,4956.52 14783.2,4956.52C14748,4956.52 14724.9,4961.96 14714.1,4972.84C14706.6,4980.31 14702.9,4991.02 14702.9,5004.98C14702.9,5019.14 14706.6,5029.95 14714.1,5037.42C14717.5,5040.83 14721.6,5043.69 14726.5,5046.02C14731.5,5048.35 14738.7,5050.31 14748.4,5051.92C14758,5053.53 14769.6,5054.33 14783.2,5054.33C14799.4,5054.33 14813,5053.05 14823.8,5050.49C14834.6,5047.94 14842.1,5044.53 14846.4,5040.27C14851.4,5035.29 14853.8,5029.29 14853.8,5022.28L14767.2,5022.28L14767.2,4997.31Z" style="fill-rule:nonzero;"/>
                    <path d="M14982,4934.5L15108.6,5048.33L15108.6,4934.5L15139.7,4934.5L15139.7,5075.46L15095.9,5075.46L14967.1,4959.66L14967.1,5075.46L14936.1,5075.46L14936.1,4934.5L14982,4934.5Z" style="fill-rule:nonzero;"/>
                    <path d="M15296.6,5075.46L15296.6,4934.5L15421.8,4934.5C15440,4934.5 15453.5,4935.6 15462.1,4937.79C15470.8,4939.99 15477.6,4943.61 15482.7,4948.65C15485.8,4951.8 15488,4955.21 15489.2,4958.88C15490.5,4962.55 15491.1,4966.77 15491.1,4971.56C15491.1,4980.47 15488.4,4987.53 15483.1,4992.74C15477.8,4997.95 15469.8,5001.64 15459.3,5003.8C15470.5,5005.9 15478.9,5009.5 15484.6,5014.61C15490.2,5019.73 15493.1,5026.87 15493.1,5036.04C15493.1,5046.2 15490.1,5054.23 15484.2,5060.13C15479.3,5065.04 15472.1,5068.83 15462.6,5071.48C15453.2,5074.14 15439.1,5075.46 15420.4,5075.46L15296.6,5075.46ZM15457.5,5023.76C15455,5021.27 15451,5019.4 15445.5,5018.15C15440.1,5016.91 15430.8,5016.28 15417.6,5016.28L15327.4,5016.28L15327.4,5051.28L15421.8,5051.28C15432.8,5051.28 15440.9,5050.82 15446,5049.9C15451.1,5048.99 15454.7,5047.45 15456.9,5045.28C15459.7,5042.47 15461.1,5038.7 15461.1,5033.98C15461.1,5029.59 15459.9,5026.18 15457.5,5023.76ZM15455.4,4965.76C15453.2,4963.53 15449.5,4961.93 15444.5,4960.94C15439.4,4959.96 15431.2,4959.47 15419.8,4959.47L15327.4,4959.47L15327.4,4992.1L15417.6,4992.1C15430.4,4992.1 15439.4,4991.6 15444.5,4990.58C15449.5,4989.56 15453.3,4987.88 15455.6,4985.52C15457.9,4983.22 15459.1,4979.91 15459.1,4975.59C15459.1,4971.46 15457.8,4968.18 15455.4,4965.76Z" style="fill-rule:nonzero;"/>
                    <path d="M15629.8,4996.13L15700.1,4934.5L15740.8,4934.5L15740.8,4935.19L15644.7,5018.25L15644.7,5075.46L15613.5,5075.46L15613.5,5018.64L15517.6,4935.19L15517.6,4934.5L15559.5,4934.5L15629.8,4996.13Z" style="fill-rule:nonzero;"/>
                    <path d="M15949,4933.71L15991.3,4933.71L16089.3,5075.46L16053.5,5075.46L16031,5042.24L15908,5042.24L15885.4,5075.46L15851,5075.46L15949,4933.71ZM15969.3,4951.41L15924.9,5017.27L16014,5017.27L15969.3,4951.41Z" style="fill-rule:nonzero;"/>
                    <rect x="16128.5" y="4934.5" width="31.161" height="140.964" style="fill-rule:nonzero;"/>
                    <path d="M16423.8,5004.98C16423.8,5024.97 16417.7,5041.02 16405.6,5053.15C16390.7,5068.02 16363.6,5075.46 16324.1,5075.46L16221,5075.46L16221,4934.5L16324.1,4934.5C16363.5,4934.5 16390.7,4941.97 16405.6,4956.91C16417.7,4969.03 16423.8,4985.06 16423.8,5004.98ZM16252.2,5050.1L16323.5,5050.1C16352.9,5050.1 16372.3,5045.48 16381.5,5036.24C16388.7,5029.03 16392.3,5018.61 16392.3,5004.98C16392.3,4991.41 16388.7,4981.03 16381.5,4973.82C16372.2,4964.51 16352.9,4959.86 16323.5,4959.86L16252.2,4959.86L16252.2,5050.1Z" style="fill-rule:nonzero;"/>
                    <path d="M16505.4,4991.71L16654.5,4991.71L16654.5,5016.68L16505.4,5016.68L16505.4,5050.1L16657.4,5050.1L16657.4,5075.46L16474.4,5075.46L16474.4,4934.5L16657.4,4934.5L16657.4,4959.86L16505.4,4959.86L16505.4,4991.71Z" style="fill-rule:nonzero;"/>
                    <path d="M16757.1,4934.5L16883.7,5048.33L16883.7,4934.5L16914.8,4934.5L16914.8,5075.46L16871.1,5075.46L16742.3,4959.66L16742.3,5075.46L16711.2,5075.46L16711.2,4934.5L16757.1,4934.5Z" style="fill-rule:nonzero;"/>
                </g>
                <g transform="matrix(0.23848,0,0,0.78996,9914,419.359)">
                    <path d="M14119.6,5075.46L14157.9,5075.46L14188.8,4992.74L14309.1,4992.74L14340.1,5075.46L14378.3,5075.46L14268.3,4783.93L14229.7,4783.93L14119.6,5075.46ZM14201.2,4959.21L14231.8,4877.22C14237.7,4861.55 14238,4842.23 14238,4825.84L14259.9,4825.84C14259.9,4842.23 14260.3,4861.55 14266.1,4877.22L14296.7,4959.21L14201.2,4959.21Z" style="fill-rule:nonzero;"/>
                    <rect x="14404.9" y="4783.93" width="38.264" height="291.536" style="fill-rule:nonzero;"/>
                    <path d="M14489.8,5075.46L14590.1,5075.46C14659.3,5075.46 14708.5,5017.15 14708.5,4929.69C14708.5,4842.23 14659.3,4783.93 14590.1,4783.93L14489.8,4783.93L14489.8,5075.46ZM14528.1,5041.57L14528.1,4817.82L14590.1,4817.82C14636.7,4817.82 14669.9,4861.91 14669.9,4929.69C14669.9,4997.48 14636.7,5041.57 14590.1,5041.57L14528.1,5041.57Z" style="fill-rule:nonzero;"/>
                    <path d="M14724.2,5075.46L14768.6,5075.46L14834.6,4982.53C14844.1,4969.05 14840.8,4951.92 14840.8,4946.46L14862.6,4946.46C14862.6,4951.92 14859.4,4969.05 14868.8,4982.53L14934.8,5075.46L14979.3,5075.46L14872.9,4926.05L14975.6,4783.93L14931.2,4783.93L14868.8,4869.57C14859.4,4882.68 14862.6,4900.18 14862.6,4905.64L14840.8,4905.64C14840.8,4900.18 14844.1,4882.68 14834.6,4869.57L14772.3,4783.93L14727.8,4783.93L14830.9,4926.05L14724.2,5075.46Z" style="fill-rule:nonzero;"/>
                    <path d="M15044.1,4845.88L15068.2,4845.88L15068.2,4872.48C15068.2,4889.97 15071.1,4902 15080.6,4917.67L15175.3,5075.46L15213.6,5075.46L15213.6,4783.93L15175.3,4783.93L15175.3,5013.51L15151.3,5013.51L15151.3,4990.55C15151.3,4973.06 15148,4961.03 15138.9,4945.36L15044.1,4783.93L15005.9,4783.93L15005.9,5075.46L15044.1,5075.46L15044.1,4845.88Z" style="fill-rule:nonzero;"/>
                </g>
            </g>
            <g transform="matrix(0.195089,-0.21388,0.0644737,0.647173,12933.5,4209.65)">
                <g transform="matrix(1,0,0,1,-1423.76,-1346.92)">
                    <path d="M2437.64,1596.53L2197.45,1860.73L2315.94,2160.49L2647.77,2240.34L2875.12,1958.51L2756.79,1656.76L2437.64,1596.53Z" style="fill:none;stroke:black;stroke-width:14.71px;"/>
                </g>
                <g transform="matrix(1,0,0,1,-1423.76,-1346.92)">
                    <path d="M2446.48,1739.13L2437.64,1596.53L2446.48,1739.13Z" style="fill:none;stroke:black;stroke-width:14.71px;"/>
                </g>
                <g transform="matrix(1,0,0,1,-1423.76,-1346.92)">
                    <path d="M2757.3,1656.88L2446.48,1739.13L2198.34,1860.64L2372.76,2101.16L2647.27,2239.79L2726.46,1974.15L2757.3,1656.88Z" style="fill:none;stroke:black;stroke-width:14.71px;"/>
                </g>
                <g transform="matrix(1,0,0,1,-1423.76,-1346.92)">
                    <path d="M2726.46,1974.15L2372.76,2101.16L2446.47,1739.27L2726.46,1974.15Z" style="fill:none;stroke:black;stroke-width:14.71px;"/>
                </g>
                <g transform="matrix(1,0,0,1,-1423.76,-1346.92)">
                    <path d="M2317.22,2159.45L2372.76,2101.16" style="fill:none;stroke:black;stroke-width:14.71px;"/>
                </g>
                <g transform="matrix(1,0,0,1,-1423.76,-1346.92)">
                    <path d="M2874.92,1958.14L2726.46,1974.15" style="fill:none;stroke:black;stroke-width:14.71px;"/>
                </g>
            </g>
        </g>
    </g>
</svg>
