<?xml version="1.0" encoding="UTF-8" standalone="no"?>
<!DOCTYPE svg PUBLIC "-//W3C//DTD SVG 1.1//EN" "http://www.w3.org/Graphics/SVG/1.1/DTD/svg11.dtd">
<svg width="100%" height="100%" viewBox="0 0 450 450" version="1.1" xmlns="http://www.w3.org/2000/svg" xmlns:xlink="http://www.w3.org/1999/xlink" xml:space="preserve" xmlns:serif="http://www.serif.com/" style="fill-rule:evenodd;clip-rule:evenodd;stroke-linecap:round;stroke-linejoin:round;stroke-miterlimit:1.5;">
    <g transform="matrix(1,0,0,1,-14176.7,-6288.42)">
        <g id="Artboard3" transform="matrix(0.997671,0,0,0.997671,1091.84,2181.86)">
            <rect x="13115.4" y="4116.15" width="451.051" height="451.051" style="fill:none;"/>
            <g transform="matrix(0.974445,0,0,0.974445,11259.6,3823.89)">
                <g transform="matrix(0.662695,0,0,0.662695,1378.94,-727.438)">
                    <path d="M978.242,2142.27L1229.5,1859.3L1474.51,1945.78L1229.5,1859.3L1052.88,1581.36" style="fill:none;stroke:rgb(166,0,255);stroke-width:15.52px;"/>
                </g>
                <g transform="matrix(0.662695,0,0,0.662695,1378.94,-727.438)">
                    <path d="M807.66,1874.9L1051.83,1579.36L1306.56,1688.04L1475.51,1946.4L1228.1,2222.33L978.242,2142.27L807.66,1874.9Z" style="fill:none;stroke:rgb(166,0,255);stroke-width:15.52px;"/>
                </g>
            </g>
        </g>
    </g>
</svg>
