<?xml version="1.0" encoding="UTF-8" standalone="no"?>
<!DOCTYPE svg PUBLIC "-//W3C//DTD SVG 1.1//EN" "http://www.w3.org/Graphics/SVG/1.1/DTD/svg11.dtd">
<svg width="100%" height="100%" viewBox="0 0 450 450" version="1.1" xmlns="http://www.w3.org/2000/svg" xmlns:xlink="http://www.w3.org/1999/xlink" xml:space="preserve" xmlns:serif="http://www.serif.com/" style="fill-rule:evenodd;clip-rule:evenodd;stroke-linecap:round;stroke-linejoin:round;stroke-miterlimit:1.5;">
    <g transform="matrix(1,0,0,1,-15680,-6288.42)">
        <g id="Artboard3" transform="matrix(0.997671,0,0,0.997671,2595.16,2181.86)">
            <rect x="13115.4" y="4116.15" width="451.051" height="451.051" style="fill:none;"/>
            <g transform="matrix(0.663979,0,0,0.663979,12596.1,3958.24)">
                <g transform="matrix(1,0,0,1,-1423.76,-1346.92)">
                    <path d="M2430.6,1619.12L2252.93,1751.37L2225.51,1944.52L2278.34,2116.02L2473.63,2251.05L2631.44,2233.72L2834.16,2100.8L2865.41,1885.08L2816.03,1715.6L2618.1,1599.29L2430.6,1619.12Z" style="fill:none;stroke:rgb(166,0,255);stroke-width:15.1px;"/>
                </g>
                <g transform="matrix(1,0,0,1,-1423.76,-1346.92)">
                    <path d="M2515.85,1748.48L2431.42,1619.12L2515.85,1748.48Z" style="fill:none;stroke:rgb(166,0,255);stroke-width:15.1px;"/>
                </g>
                <g transform="matrix(1,0,0,1,-1423.76,-1346.92)">
                    <path d="M2374.16,1955.05L2226.51,1945.57L2374.16,1955.05Z" style="fill:none;stroke:rgb(166,0,255);stroke-width:15.1px;"/>
                </g>
                <g transform="matrix(1,0,0,1,-1423.76,-1346.92)">
                    <path d="M2533.81,2151.9L2473.63,2250.05L2533.81,2151.9Z" style="fill:none;stroke:rgb(166,0,255);stroke-width:15.1px;"/>
                </g>
                <g transform="matrix(1,0,0,1,-1195.91,-1457.98)">
                    <path d="M2543.06,2162.99L2604.84,2210.86L2543.06,2162.99Z" style="fill:none;stroke:rgb(166,0,255);stroke-width:15.1px;"/>
                </g>
                <g transform="matrix(1,0,0,1,-1195.91,-1457.98)">
                    <path d="M2587.02,1827.35L2532.93,1918.61L2587.02,1827.35Z" style="fill:none;stroke:rgb(166,0,255);stroke-width:15.1px;"/>
                </g>
                <g transform="matrix(1,0,0,1,-1423.76,-1346.92)">
                    <path d="M2760.02,1808.56L2770.91,2051.31L2534.29,2151.9L2375.16,1956.11L2515.85,1748.48L2760.02,1808.56Z" style="fill:none;stroke:rgb(166,0,255);stroke-width:15.1px;"/>
                </g>
            </g>
        </g>
    </g>
</svg>
