<svg xmlns="http://www.w3.org/2000/svg" xml:space="preserve" style="fill-rule:evenodd;clip-rule:evenodd;stroke-linejoin:round;stroke-miterlimit:2" viewBox="0 0 450 450"><path d="M0 0h450v450H0z" style="fill:none"/><path d="M40.586 237.498c1.565 0 2.199-.127 3.341-.254 2.833-.381 3.341-1.142 5.92-2.368 2.58-1.226 5.117-2.453 7.696-3.594 1.692-.762 3.468-1.354 5.328-1.607 2.664-.339 5.117.211 7.316 1.733.761.55 1.48 1.184 2.156 1.861 1.48 1.48 2.199 3.298 2.199 5.413v2.241c-.507-.423-.507-.804-.634-1.1-.212-.803-.381-1.649-.634-2.452-1.058-3.299-2.918-4.736-6.386-4.905-3.425-.17-6.723.465-9.895 1.691-2.748 1.099-5.328 2.495-7.696 4.271-2.241 1.734-4.651 3.087-7.231 4.228-.718.296-1.395.635-2.241 1.015 1.438.888 2.833 1.142 4.187.381a40.407 40.407 0 0 0 4.271-2.664c2.96-2.199 6.089-4.144 9.598-5.413 2.326-.845 4.736-1.437 7.189-1.564a9.462 9.462 0 0 1 1.903.042c2.368.338 4.229 2.368 4.229 4.821a20.077 20.077 0 0 1-1.354-.719c-1.649-.973-3.383-1.649-5.328-1.692-2.241-.042-4.271.677-6.047 1.988-1.564 1.099-3.002 2.368-4.524 3.594-1.522 1.184-2.96 2.495-4.525 3.552-2.41 1.649-5.116 2.368-8.076 2.072-.423-.042-.846-.127-1.438-.169.211.254.338.465.507.592 2.241 1.734 4.694 2.072 7.231.846 1.184-.55 2.284-1.269 3.341-2.072 2.199-1.607 4.355-3.341 6.554-4.99 1.1-.846 2.241-1.649 3.425-2.326 3.003-1.691 5.667-1.395 8.204.888.888.804 1.607 1.734 2.368 2.664.676.804 1.311 1.607 2.326 2.072 1.057.508 1.141 1.523.253 2.284-1.226 1.057-1.437 2.325-1.268 3.848.296 2.579.507 5.159.719 7.78v.635c-.423-.127-.762-.212-1.1-.339-1.015-.338-2.03-.719-3.087-1.015-1.903-.507-3.425.085-4.44 1.776a35.991 35.991 0 0 0-1.86 3.595c-.846 1.818-2.157 3.002-4.229 3.213-.846.085-1.311.762-1.861 1.311.466.804 1.015 1.438 1.776 1.946 1.692 1.099 3.383 2.241 5.117 3.298 3.51 2.199 7.231 2.664 11.164 1.311 2.621-.888 5.032-2.157 6.934-4.229 2.072-2.241 3.003-4.947 3.087-7.95.085-2.199-.296-4.397-.676-6.554-.254-1.438-.592-2.833-.846-4.271-.169-.888-.507-1.607-1.226-2.156-.254-.212-.465-.381-.761-.635.253-.169.338-.253.422-.296 1.396-.761 1.65-1.395 1.311-2.918-.169-.634-.38-1.226-.507-1.86-.085-.381-.085-.761-.169-1.353.634.296 1.141.423 1.607.719 1.902 1.099 3.594.845 5.201-.592.507-.466 1.141-.846 1.818-1.354.085.719.296 1.269.212 1.819-.466 3.383 0 6.681.465 9.979.338 2.495.592 5.032.761 7.569.169 2.58.338 5.202.211 7.781-.296 5.582-2.495 10.318-7.019 13.828-2.58 1.987-5.54 3.086-8.711 3.594-1.776.296-3.552.465-5.37.254-2.58-.254-4.821-1.269-6.682-3.087l-.634-.635c-.042 0-.085 0-.169-.042-.042.212-.085.423-.085.634 0 1.227.043 2.453.085 3.637.042 1.353-.127 2.706-.761 3.933-.719 1.437-1.903 2.241-3.51 2.41-1.987.169-3.721-.423-5.37-1.438a42.45 42.45 0 0 1-1.776-1.184c-.381 1.142-.043 2.284.888 3.003.423.338.93.592 1.395.761 1.142.423 1.818 1.226 2.114 2.41.719 2.96 1.48 5.878 2.115 8.88 1.141 5.159 1.86 10.36 1.818 15.688-.042 5.92-.93 11.713-3.256 17.211-2.072 4.905-5.159 9.091-9.218 12.558-.55.466-1.1.973-1.649 1.48-.719.677-.888 1.48-.466 2.411.592 1.184 1.227 2.325 1.819 3.509.338.677.719 1.354 1.057 2.03-1.396.973-4.144 1.057-5.624-.592-2.58-2.875-4.948-5.92-7.147-9.091-.676-.973-.465-1.565.592-2.115.254-.126.55-.253.846-.338 3.848-1.353 6.597-3.932 8.415-7.484 1.692-3.299 2.537-6.809 2.96-10.487.55-5.075-.38-9.98-1.734-14.8-.422-1.481-.718-2.961-1.141-4.398-.254-.973-.127-1.819.38-2.622l3.172-5.201c.253-.423.507-.804.676-1.269.296-.761.085-1.226-.719-1.48-.592-.169-1.268-.253-1.902-.38-1.184-.212-2.411-.381-3.595-.55a5.225 5.225 0 0 0-.803-.085c-1.057.043-1.692.55-1.649 1.607.042 1.142.253 2.284.465 3.383.127.761.423 1.48.592 2.241.38 1.607-.043 2.918-1.311 4.017-1.396 1.227-2.791 2.453-4.144 3.764-3.129 3.129-6.935 4.863-11.248 5.624-1.649.296-3.256.55-4.905.761-.635.085-1.311.042-1.903-.169-2.707-1.015-5.328-2.199-7.485-4.186-.761-.719-1.438-1.523-2.072-2.368-.803-1.142-1.903-1.734-3.256-1.734-1.057 0-2.072.169-3.129.296-.338.042-.634.084-1.184.169 1.184-2.495 2.537-4.482 4.778-5.793.973-.55 1.903-.677 2.876-.212.592.254 1.141.55 1.691.931 4.186 2.748 8.5 3.087 12.94.676 1.311-.719 2.621-1.437 3.89-2.156.423-.212.803-.508 1.184-.761.93-.719 1.057-1.607.381-2.58-.212-.296-.508-.55-.719-.846-.339-.465-.719-.93-.973-1.437-.423-.761-.296-1.523.296-2.157.423-.465.93-.888 1.48-1.226 1.142-.719 2.326-1.353 3.552-1.988 2.495-1.31 3.256-2.79 3.002-5.624-.253-2.41-.422-4.863-.634-7.273v-.803c.55-.169 1.1-.296 1.649-.465.508-.127 1.057-.212 1.565-.381.719-.254 1.268-.719 1.522-1.649-.676.084-1.268.169-1.86.254-.592.042-1.142.084-1.734.042-.592 0-1.226 0-1.818-.085-.677-.084-1.311-.38-1.734-.93-1.184-1.565-2.072-3.256-2.199-5.243-.127-1.48.423-2.707 1.353-3.806 1.184-1.396 2.622-2.453 4.102-3.425.55-.339 1.099-.677 1.607-1.1.676-.55.761-1.057.042-1.564-.93-.677-1.184-1.565-1.353-2.622-1.353-7.316-2.749-14.589-4.102-21.904-.211-1.269-.338-2.537-.465-3.806-.042-.254-.042-.465-.085-.719-.38-2.03-1.437-2.875-3.509-2.622-2.241.296-4.483.677-6.724.973-.719.085-1.142.507-1.48 1.099-.465.846-.55 1.734-.55 2.664 0 .423.043.888.085 1.396-.296-.085-.507-.127-.719-.212-.296-.126-.634-.253-.93-.422-2.03-1.184-4.102-1.184-6.216-.254-.634.254-1.269.465-2.03.761-.127-.93.338-1.691.212-2.537-.17-1.1-.212-2.241-.254-3.341-.042-.803.169-1.353.296-2.029.042-.212.042-.381.084-.592.212-1.523 1.015-2.495 2.495-2.834 2.241-.465 4.483-.972 6.766-1.31 4.313-.635 8.669-.719 13.066-.423 1.269.084 3.891.38 5.159 2.579 1.438 2.58 1.607 3.214 1.734 8.88m26.894 18.564c.084 0 .296 0 .507-.043 1.65-.126 2.072-.507 2.538-2.114.718-2.579-.466-6.047-2.58-7.654-.719-.549-1.565-.845-2.453-.761a31.995 31.995 0 0 0-3.509.423c-1.438.254-1.903.888-1.945 2.368-.127 4.017 3.298 7.654 7.442 7.781Zm27.486-56.494c1.226-.043 2.199.211 3.129 1.014 3.298 2.749 6.258 5.878 9.303 8.923 3.679 3.679 7.315 7.4 10.994 11.121.339.338.677.634 1.057.93 1.015.677 1.861.635 2.749-.211.254-.212.465-.508.677-.761 6.3-8.5 13.362-16.407 20.677-24.061 1.903-2.03 3.848-4.017 5.751-6.005.465-.507.888-1.014 1.269-1.564.55-.804.634-1.692.296-2.622-.381-1.142-.296-1.564.676-2.368 2.157-1.818 4.314-3.679 6.512-5.497 3.214-2.664 6.47-5.328 9.684-8.034a23.132 23.132 0 0 1 5.37-3.426c.55-.253 1.1-.549 1.649-.803.085.042.212.085.254.169 2.241 2.495 4.482 4.99 6.681 7.485.381.465.762.972 1.058 1.48.761 1.353.676 2.664-.212 3.932a12 12 0 0 1-1.734 1.861c-4.313 3.679-8.626 7.4-12.981 11.037-1.48 1.268-3.13 2.368-4.736 3.509-1.396.973-2.453.931-3.849 0-1.353-.93-2.494-.761-3.509.592a127.476 127.476 0 0 0-2.749 3.891c-4.059 5.835-8.119 11.713-12.22 17.548-2.538 3.595-3.933 7.612-4.229 11.967-.212 3.256-.254 6.555-.381 9.811-.296 7.315-.549 14.588-.845 21.904-.043.845-.212 1.691-.423 2.495-.296 1.184-.339 2.283.845 3.044.17.127.254.465.254.719 0 .634-.211 1.184-.676 1.649-.466.465-.592 1.015-.635 1.649-.253 4.567-.592 9.092-.888 13.659-.338 6.089-.38 12.136.254 18.225.507 4.99 1.015 10.022.846 15.054-.043 1.438-.127 2.918.211 4.355.508 2.03 1.438 3.764 3.172 5.032.93.719 1.818 1.48 2.875 2.368-.507.212-.803.381-1.099.465-1.353.339-2.707.296-3.975-.169a4.337 4.337 0 0 1-1.48-.845c-1.48-1.354-3.299-1.946-5.201-2.368-1.1-.254-2.072.169-2.791 1.057-.169.169-.296.38-.465.549-.719.635-1.523.973-2.495.635-.592-.212-1.227-.423-1.819-.635-.93-.338-1.649-.042-2.198.719-.296.423-.635.888-.931 1.311-.211.296-.465.592-.719.973-.338-.212-.634-.381-.972-.592-1.353-.846-2.664-1.734-4.017-2.537-1.946-1.142-2.918-1.015-4.694.465-.592.507-1.184.972-1.861 1.564-.38-.507-.761-.93-1.099-1.395-1.311-1.945-3.045-2.537-5.286-1.861-.676.212-1.353.296-2.199.508.169-.888.339-1.649.508-2.453.592-3.002 1.268-6.004 1.733-9.049.466-3.002.719-6.047.973-9.049.338-3.552.634-7.062.93-10.614.423-5.37.761-10.741 1.142-16.069.169-2.41.338-4.863.93-7.231.677-2.748.761-5.539.761-8.372 0-4.694.592-9.303 1.396-13.912 1.015-5.878 1.987-11.798 3.002-17.676.254-1.48.592-2.918 1.057-4.313.761-2.41.55-4.652-.634-6.85-1.353-2.538-2.918-4.948-4.821-7.147-2.325-2.706-4.82-5.328-7.23-7.949a90.432 90.432 0 0 1-2.538-2.918c-.718-.888-.888-1.861-.507-2.96.169-.508.296-.931.423-1.353Z" style="fill-rule:nonzero"/><path d="M65.62 189.207c1.607.761 3.171 1.48 4.778 2.241.508.212.973.423 1.522.592 1.015.296 1.48.085 1.903-.803.635-1.269 1.015-2.622.973-4.102a8.76 8.76 0 0 1 .127-2.114c.296-1.523 1.353-2.072 2.791-1.48.422.169.761.423 1.184.592.465.211.93.423 1.395.549 1.015.296 1.649 0 2.03-.972.296-.761.465-1.565.676-2.326.212-.761.339-1.607.635-2.326.845-2.241 2.579-3.087 4.947-2.579.888.211 1.776.38 2.706.465 1.734.127 3.172-.592 4.271-1.903 1.015-1.226 2.453-1.522 3.848-.719.423.254.846.592 1.227.888.549.381 1.057.846 1.649 1.184 1.437.804 2.579.677 3.763-.465.381-.338.677-.761 1.057-1.099.719-.719 1.396-1.48 2.199-2.115 1.015-.803 1.861-.803 2.833.043 2.072 1.86 3.848 4.017 5.075 6.512.592 1.226.127 2.03-1.184 2.283-.973.169-1.945.296-2.918.465-1.184.212-1.861.931-2.03 2.072-.084.635-.211 1.269-.254 1.903-.126 1.311-.761 2.199-1.987 2.664-.338.127-.677.296-1.015.465-1.353.592-1.987 1.692-2.03 3.13 0 .888 0 1.776.043 2.621 0 .381.042.761 0 1.1-.085.676-.381.93-1.057 1.015h-.085c-1.691-.296-3.298 0-4.863.676-.846.338-1.607.042-2.156-.634-.339-.381-.592-.804-.888-1.226-.719-.973-1.607-1.734-2.791-2.115-2.199-.719-4.948.55-5.667 2.749-.38 1.057 0 2.072.677 2.918.38.465.846.888 1.268 1.31.296.296.592.55.931.804 2.706 1.987 4.271 4.651 5.032 7.865.127.634.338 1.226.507 1.861.296 1.057-.296 1.987-1.395 2.029-1.776.085-3.552.254-5.328-.169h-.085c-2.706 0-5.412-.084-8.119.085-2.621.169-3.467 1.86-2.241 4.186.465.846 1.057 1.649 1.692 2.41.718.931 1.48 1.776 2.198 2.664.381.466.719.973.931 1.565.549 1.353.084 2.368-1.311 2.706-2.41.635-4.609.254-6.554-1.395a69.111 69.111 0 0 1-9.515-10.064c-4.609-6.005-7.907-12.728-10.36-19.875-.211-.676-.338-1.437-.296-2.156.042-.761.381-1.057 1.142-1.184.634-.085 1.226-.042 1.776.296.803.507 1.564 1.057 2.368 1.522.55.338 1.099.677 1.691.888.635.254 1.057.042 1.269-.592.127-.423.169-.846.254-1.268.253-1.142.465-2.242.718-3.383-.126-.085-.042-.169.043-.254Zm-8.923-54.803c0-9.852 12.771-23.003 15.689-25.879 3.763-3.679 7.315-6.723 11.966-10.064 4.44-3.171 8.415-4.693 13.321-6.808 3.086-1.311 15.011-4.567 26.682-2.368.042.635-.761 3.129-1.395 3.256-1.692.381-17.634 5.117-17.887 5.413-1.1 1.438-1.396 2.537.338 4.017.423.338.507.761.465 1.269-.127 1.099-.381 2.114-1.142 2.96-.465.507-.888 1.014-1.353 1.522-.55.634-.972 1.353-1.142 2.241-.253 1.607.508 3.045 2.03 3.848.55.296 1.184.55 1.734.846 1.311.719 1.607 1.522 1.142 2.96-.254.719-.592 1.353-.888 2.03-.212.507-.466 1.014-.55 1.522-.127.719.38 1.438 1.099 1.607.381.084.761.127 1.1.127 1.099 0 2.156-.085 3.256-.085.507 0 1.015-.042 1.48 0 1.015.127 1.734 1.015 1.564 2.03-.169 1.141-.465 2.283-.676 3.425-.085.423-.254.846-.339 1.268-.253 1.396.212 2.242 1.565 2.622.677.212 2.199.508 2.453 1.142.719 1.691.676 2.326 2.495 2.072 2.325-.338 3.594-.296 5.285.338 1.903.719 1.353 1.353 1.396 2.284 0 .634-.931 1.48-2.157 2.833-.761.888-1.48 2.072-1.015 2.622.888 1.057 1.396 1.141 2.368 1.818.635.465 1.269.888 1.945 2.072.508.888 1.269 2.072.931 3.34-.212.846-1.311 3.299-2.791 1.692-1.565-1.734-4.229-1.226-4.525.254-.507 2.241-1.691 3.34-3.89 2.706-1.607-.465-3.087-1.226-4.356-2.326-1.014-.888-1.099-1.015-1.268-2.326-.085-.549-.042-1.014 0-1.691.042-.592.254-1.438.254-1.522.042-1.819.507-4.736-1.692-4.398-.296.042 1.226-.677 0 0-3.51.719-5.751 3.256-8.372 1.057-.719-.634-.973-2.96-.339-4.947.465-1.523 1.353-3.045-.38-3.51-.339-.085-1.227.169-1.565.296-.676.296-1.311.677-2.03.846-2.325.465-4.27.634-4.905-.761-.296-.677-.042-2.115 0-2.961.085-.972.592-2.537.55-3.509 0-.254-.042-.465-.085-.719-.253-1.1-.803-1.438-1.818-1.1-.592.17-1.142.466-1.649.762-1.353.718-2.664 1.437-4.017 2.114-.55.296-1.184.55-1.776.676-.888.212-1.523-.169-1.607-1.057-.085-1.057 0-2.156.084-3.213.085-1.058.296-2.115.423-3.13.043-.211.043-.38.043-.592 0-1.395-.677-2.029-2.072-2.325-1.058-.254-2.876-.423-3.637-.423-8.203-.085-17.549 13.32-20.34 13.827m128.973-3.552c2.241-1.733-3.764-6.089-2.284-8.415.212-.296.888-.084 1.353.043.762.211 5.54 3.467 7.189 4.482.846.507 3.806 3.341 4.017 3.89 3.425 4.44 5.244 14.251 5.709 21.101.084 1.48.127 1.776.042 3.045-.042 1.099.254 2.875-1.438 3.087-.042.042.085 0 0 0-1.311.169-2.241-.339-2.748-.973-1.649-2.114-.339-3.298-2.284-6.766-1.226-2.156-3.848-1.564-4.736-1.353-.719.169-.972.634-1.437 1.734-.888 2.072-2.538 3.002-4.652 3.213-2.072.212-4.355.466-5.793 1.861-1.311 1.48-.592 2.284-1.269 3.256-.634.93-2.368 1.692-4.059 1.438-.761-.085-1.1-.212-1.438-.465-.38-.254-.803-.55-1.184-.761-2.368-1.438-3.721-1.311-5.708.592-.381.38-.762.761-1.184 1.099-.931.719-1.523.634-2.242-.296-.338-.465-.634-.973-.972-1.438-.381-.549-.761-1.141-1.226-1.607-1.227-1.226-3.13-.845-3.891.888a3.393 3.393 0 0 0-.042 2.495c.211.635.465 1.227.719 1.861.211.507.465.972.634 1.48.296.846.211 1.691-.507 2.326-1.142.972-2.199 1.987-3.383 2.875-1.776 1.311-3.003 1.311-4.821.042-.211-.169-.423-.338-.676-.465-1.058-.719-2.157-.719-3.256-.084-.466.253-.931.592-1.396.803-1.268.55-2.199.127-2.622-1.184-.211-.592-.253-1.269-.38-1.903-.254-1.649-.55-3.34-.804-4.99-.38-2.325 0-4.609.592-6.85.17-.761.931-1.226 1.692-.973.423.127.846.339 1.268.508.592.211 1.227.423 1.861.507 1.099.169 2.072-.211 2.537-1.226.423-.888.634-1.861.888-2.791.254-.846.338-1.734.634-2.537.508-1.395 1.48-1.945 2.96-1.691.719.126 1.438.338 2.157.549.381.127.761.296 1.142.381.803.169 1.268-.042 1.691-.761.127-.254.212-.508.338-.761.677-1.607 1.819-2.199 3.51-1.692.888.254 1.776.677 2.622 1.057.846.339 1.649.761 2.537 1.057 1.649.55 2.664 0 2.96-1.691.296-1.818.508-3.679.296-5.582-.042-.253-.042-.719-.042-.972.084-1.269.127-2.58.211-3.848.043-.423.085-.888.212-1.311a1.726 1.726 0 0 1 1.691-1.269c.381 0 .761.085 1.142.212.888.338 1.776.676 2.622 1.014.296.127.634.254.93.381 1.649.634 2.452.254 3.129-1.353.127-.338.254-.719.423-1.015.761-1.522 1.987-1.861 3.425-.973.634.381 1.226.846 1.861 1.227.507.38 1.141.042 1.48-.508m-60.681 48.206c-4.228 0-7.188-1.945-8.88-5.835-3.679-8.5 1.861-15.477 7.95-17.211 4.355-1.226 9.557.719 12.051 3.891.635.803 1.015 1.734 1.227 2.748.211 1.015.55 2.03.634 3.087.085.973 0 2.03-.211 3.003-1.269 5.835-6.893 10.317-12.771 10.317Zm.465-17.295c-.169.423.085.592.381.804.592.423 1.226.846 1.818 1.268 1.776 1.396 2.115 3.299.931 5.202-.931 1.522-2.411 1.987-4.144 1.31-1.565-.592-2.326-1.945-1.946-3.636.17-.719.466-1.396.804-2.072.465-.93.846-1.607.507-2.791-.761-.211-1.649.338-1.945.846-.888 1.395-1.438 3.002-1.395 4.693.042 2.664 2.199 4.948 4.82 5.117 2.791.169 5.075-1.776 5.624-4.144.339-1.48 0-2.875-.423-4.271-.718-2.283-2.664-3.171-5.032-2.326Z" style="fill-rule:nonzero"/><path d="m158.311 159.565 1.141 1.776c.296.465.592 1.014.931 1.437 1.184 1.565 2.452 1.734 3.975.508.507-.381.93-.888 1.395-1.353.423-.423.846-.888 1.353-1.227.846-.592 1.649-.507 2.41.127.339.296.635.592.888.973.466.719.423 1.395-.084 2.072-.169.253-.423.465-.634.634-6.216 5.243-12.433 10.529-18.649 15.773-.465.423-1.014.761-1.606 1.057-.804.423-1.607.296-2.242-.296a4.991 4.991 0 0 1-.972-1.142c-.761-1.184-.634-2.41.296-3.425.296-.338.634-.592.972-.846 2.707-1.987 5.413-3.932 8.119-5.878.254-.211.55-.38.804-.592 1.987-1.649 2.621-3.678 1.945-6.173-.254-.888-.465-1.776-.719-2.622-.127-.465.085-.677.677-.803Zm-90.492 92.986c-.719.339-1.734.592-2.495-.084-1.057-1.015-2.199-1.903-3.214-2.96-1.015-1.1-.719-2.241.677-2.749 1.141-.423 2.283-.254 3.382.085.508.169.762.592.762 1.099.042.339 0 .677-.085 1.015-.127.634-.507 1.226-.423 1.861.169.634.634 1.437 1.396 1.733Zm150.284-19.24c-1.607-3.087-4.947-6.173-6.766-7.357-1.48-.973-4.736-.55-5.666 0-2.03 1.818-2.876 5.074-2.749 9.514.127 4.567 1.015 10.487.973 15.054 0 2.156-.296 4.228-.592 6.343-.296 2.156-.381 4.355-.423 6.554 0 3.763-1.184 7.104-1.015 10.867.127 3.722-.084 7.316.719 10.952.127.635.423 1.227.507 1.861.212 1.142.466 2.241.508 3.383.084 1.395.169 2.537-.973 3.341-.803.549-1.691.803-2.664.93-.296-.508-.507-.973-.803-1.438-.719-1.099-1.734-1.691-3.087-1.565-3.383.381-5.286 1.692-6.131 4.441-.381 1.226-.339 2.41.253 3.552.508 1.057 1.353 1.564 2.537 1.564.339 0 .677-.042 1.015-.127 3.806-.761 3.764-.592 7.189-2.199.719-.634.972-1.057 1.48-1.437.465-.296.803-.381 1.776-.339.465.466.465 1.142.465 1.692 0 .38-.211 1.438-.634 1.818-1.607 1.142-.888 1.057-5.328 2.241-1.269.339-2.58.423-3.891.635-.169.042-.338.042-.592.126-.169.55-.338 1.1-.465 1.692a25.547 25.547 0 0 1-2.072 5.793c-3.383 6.893-3.552 14.039-1.311 21.312.762 2.41 1.396 4.863 1.65 7.4.211 2.453.042 4.863-.55 7.231a6.608 6.608 0 0 1-2.453 3.721c-1.311.973-2.706 1.819-4.059 2.664-.127.085-.465.127-.508.043-.126-.127-.253-.423-.169-.592.169-.592.296-1.184.592-1.734.465-1.015.973-2.03 1.565-2.96 1.776-2.749 1.734-5.54.169-8.33-.93-1.692-1.903-3.341-2.749-5.075-2.833-5.793-4.693-11.882-5.412-18.267-.55-4.61-.465-9.261.127-13.87.634-5.117 1.776-10.106 3.679-14.927.507-1.226 1.057-2.41 1.606-3.764-.338.17-.592.254-.803.339-1.988 1.099-3.933 2.199-5.962 3.256-2.622 1.353-5.328 2.283-8.246 2.664-4.398.549-8.415-.296-11.84-3.299-3.087-2.706-5.751-5.793-8.077-9.218-.972-1.395-1.311-3.002-1.649-4.651-.465-2.537-1.142-5.117-1.649-7.654-.212-1.142-.592-2.284-.93-3.425-.212-.761.042-1.565.338-2.157.592.169 1.015.296 1.734-.084.676-.381 2.156-1.184 2.875-.931 1.057.339 1.48 1.227 1.522 2.326.043 1.311.635 2.918 1.988 3.129 1.184.169 2.241.719 2.325 1.184.043.212.212.592-.042.55-1.438-.381-2.622.38-2.664 1.86a8.896 8.896 0 0 0 .338 2.791c.635 2.453 1.988 4.525 3.552 6.428 1.269 1.564 2.791 2.96 4.441 4.144 3.467 2.452 7.188 2.875 11.163 1.48 2.918-1.015 5.328-2.791 7.146-5.244 1.438-1.902 1.523-3.89.339-5.962-.592-1.015-1.184-2.072-1.776-3.087-.55-.972-1.354-1.607-2.538-1.522-.507.042-.761-.212-.93-.592a13.114 13.114 0 0 0-.55-1.1c-1.353-2.537-3.213-2.917-5.412-1.099-.169.169-.338.338-.55.465-.55.296-1.057.592-1.649.761-.803.254-1.226.043-1.522-.761-.212-.634-.381-1.311-.339-1.945.085-1.734.296-3.425.466-5.159.169-1.734.338-3.425.507-5.159.211-1.86-.211-3.636-.423-5.455-.127-1.184-.127-2.368-.169-3.552 0-.338.085-.676.169-.972.55-1.776 1.903-2.411 3.637-1.692.211.085.423.169.676.296.127-.465.212-.845.339-1.226.422-1.269 1.141-1.607 2.452-1.099.381.126.719.338 1.184.507.254-.338.465-.677.719-.973.634-.803 1.015-.972 2.03-.634.465.127.888.338 1.311.465 1.776-1.141 3.086-1.015 5.159.592-.212.804-.466 1.649-.719 2.58.38-.127.634-.169.845-.254a10.77 10.77 0 0 0 1.015-.465c1.819-.846 2.495-.508 2.96 1.438.254 1.099.212 2.114-.296 3.171-.253.507-.423 1.057-.634 1.607-.296.803-.085 1.522.55 2.114.38.339.761.677 1.141.973 2.876 1.945 5.794 3.89 8.669 5.835.423.296.761.381 1.184-.084-.127-2.241-.169-4.567-.381-6.851-.211-2.748-.126-5.455.127-8.203.296-3.256.592-6.512.973-9.768.296-2.453 1.015-4.821 2.199-7.02 1.184-2.156 2.875-3.636 5.328-4.186 2.114-.465 5.328-.169 7.104.973 1.142.718 2.326 1.395 3.383 2.198 1.733 1.311 2.495 1.777 3.932 3.087 2.622 2.411 4.821 6.005 5.667 9.515.126.465.296.93.592 1.268.803 1.015 1.226 2.157 1.522 3.383.169.592.296 1.184.465 1.776.085.465.085.465-.465.846a12.395 12.395 0 0 0-1.015-.592c-.888-.423-1.565-.296-2.157.507-.38.508-.676 1.057-1.057 1.734-1.057-2.241-2.452-3.806-5.159-3.679.17-.38.296-.634.423-.93.719-1.396.465-4.99-.634-6.301m-49.475 19.79c.127.804.17 1.607.423 2.368.423 1.353 1.438 1.903 2.749 1.522a9.228 9.228 0 0 0 2.537-1.184c1.987-1.31 3.425-3.129 4.609-5.158.423-.762.846-1.565 1.142-2.368.423-1.184 0-2.03-1.1-2.58a1.997 1.997 0 0 0-.634-.254c-2.41-.719-4.609-.38-6.596 1.227-2.072 1.564-2.96 3.805-3.13 6.427Zm8.5 11.629c.55.042 1.015.084 1.48.127 2.156 0 3.721-1.142 4.398-3.172.38-1.184-.254-2.41-1.438-2.495a8.945 8.945 0 0 0-2.58.254c-.761.169-1.31.677-1.606 1.438-.592 1.184-.508 2.495-.254 3.848Z" style="fill-rule:nonzero"/><path d="M191.378 318.94c0-.211-.042-.338 0-.465.931-2.748 1.819-5.497 2.833-8.246 1.1-2.875 2.072-4.609 4.948-5.708.38-.127.761-.296 1.142-.465 1.649-.677 2.79-.169 4.059-1.1.508-.549 1.184-.803 1.945-.549.677.253 1.057.845 1.142 1.564.296 2.791.296 5.032 0 7.823-.254 2.453-1.522 4.356-3.51 5.793-1.353.973-2.875 1.649-4.482 2.115-3.172.972-6.724.211-8.077-.762Zm-15.011-4.355c-2.03-.888-4.102-1.734-6.089-2.664-1.48-.719-2.453-1.988-3.003-3.552-.127-.296-.211-.634-.296-.973-.38-1.184-.845-2.283-1.691-3.213-.338-.381-.508-.804-.296-1.311.211-.508.634-.719 1.142-.719 2.029-.042 4.059 0 6.046.465 1.861.465 3.214 1.691 4.314 3.171.507.635.549 1.438.422 2.242-.084.676-.211 1.31-.338 1.987a11.379 11.379 0 0 0 .042 4.313l-.253.254Zm-5.497-60.046c.253-.212.592-.381.972-.55.761-.423 1.1-2.579.423-3.975-.423-.93-.296-1.522.592-2.029a23.538 23.538 0 0 1 2.537-1.269c.719-.296 1.438-.169 2.072.423.761.719.888 1.438.254 2.241-1.057 1.311-2.114 2.622-3.256 3.848-.973.93-2.114 1.522-3.594 1.311Zm94.017-107.441c.154.37.231.664.231.88 0 .432-1.088 1.227-3.265 2.385-2.177 1.158-3.481 3.034-3.914 5.627a30.665 30.665 0 0 0-.416 3.937c-.062 1.389-.093 3.319-.093 5.789l.046 13.015c-1.358.123-2.292-.348-2.802-1.413-.509-1.065-.764-2.679-.764-4.84 0-1.019.062-2.455.185-4.307.278-4.138.417-6.87.417-8.198 0-3.118-.255-5.179-.764-6.183-.509-1.003-1.907-2.076-4.191-3.219-1.977-1.019-2.965-1.868-2.965-2.547 0-.556.603-1.019 1.807-1.389 1.204-.371 2.902-.71 5.094-1.019 2.44.123 4.277.231 5.512.324 3.705.309 5.666.695 5.882 1.158Zm17.178 26.172c-.506-.08-.839-.466-.999-1.159-.16-.692-.24-1.732-.24-3.117v-1.539c0-.519.014-1.045.04-1.578 0-3.357-.439-5.635-1.319-6.834-.746-1.039-1.891-1.558-3.436-1.558-1.812 0-3.051 1.372-3.717 4.116-.293 1.199-.533 3.457-.719 6.774-.187 3.317-.586 4.975-1.199 4.975-.08 0-.2-.027-.36-.08-.559.16-.939-.16-1.139-.959-.2-.799-.3-2.025-.3-3.677 0-.799.027-2.238.08-4.316.054-2.078.08-3.223.08-3.437a26.945 26.945 0 0 1-.08-1.838c-.08-1.918-.12-3.303-.12-4.156 0-1.892.08-3.47.24-4.736.16-1.265.44-2.098.839-2.497 1.279.293 2.225 1.438 2.838 3.436.293.933.759 1.492 1.399 1.679 1.332.373 2.677.733 4.036 1.079 1.892.586 3.25 1.412 4.076 2.478.373.453.753 1.865 1.139 4.236.386 2.371.58 4.609.58 6.714 0 1.731-.134 3.123-.4 4.176-.266 1.052-.706 1.658-1.319 1.818Zm18.661-15.342c.323.949.485 1.779.485 2.491 0 .819-.248 1.39-.744 1.714-.388.258-.981.388-1.778.388-.496 0-.971-.033-1.423-.097-.151 0-.324-.011-.518-.033a5.405 5.405 0 0 0-.582-.032c-1.38 0-2.447.313-3.202.938-.668.561-1.002 1.25-1.002 2.07 0 .323.043.603.129.841.237.69.577 1.185 1.019 1.487.442.302.965.453 1.568.453.626 0 1.359-.135 2.2-.404.84-.27 1.66-.545 2.457-.825 0 1.164-.371 2.075-1.115 2.733-.744.657-1.687.986-2.83.986-1.38 0-2.663-.442-3.849-1.326-1.336-.991-2.296-2.371-2.878-4.139-.345-1.035-.517-2.189-.517-3.461 0-2.393.582-4.441 1.746-6.144 1.272-1.876 2.932-2.814 4.98-2.814 1.272 0 2.426.442 3.461 1.326 1.035.884 1.832 2.167 2.393 3.848Zm-5.53 1.035c.086.022.215.033.388.033.668 0 1.002-.334 1.002-1.003 0-.496-.183-.959-.549-1.391-.432-.495-.938-.743-1.52-.743-.453 0-.793.102-1.019.307-.226.205-.34.48-.34.825 0 .431.184.84.55 1.229.367.388.863.636 1.488.743Zm-21.819 52.147c0 .335.587 3.29 1.761 8.865.587 2.767.88 5.072.88 6.917 0 3.227-.65 5.889-1.949 7.985-1.593 2.599-4.276 4.527-8.048 5.784-.964.252-2.274.493-3.93.723a35.686 35.686 0 0 1-4.936.346c-1.55 0-2.955-.136-4.212-.409-1.258-.272-2.264-.723-3.018-1.351-.964-.839-1.635-1.74-2.012-2.704-.377-.964-.566-2.075-.566-3.332 0-.629.147-2.222.44-4.779.168-1.467.252-2.536.252-3.207v-.754c0-.293-.042-.734-.126-1.32-.252-1.803-.44-3.249-.566-4.339-.503-4.15-.755-7.754-.755-10.814 0-4.234.399-7.629 1.195-10.186 1.006-3.186 2.651-5.041 4.936-5.565 2.284-.524 4.474-.785 6.57-.785 4.988 0 8.635 1.739 10.941 5.218 2.095 3.144 3.143 7.713 3.143 13.707Zm-9.368 0c1.425-.755 2.483-1.635 3.175-2.641.692-1.006 1.038-2.054 1.038-3.144 0-1.592-.724-2.986-2.17-4.181-1.446-1.194-3.196-1.792-5.25-1.792-.922 0-1.97.157-3.144.472a4.844 4.844 0 0 0-2.797 1.949 5.609 5.609 0 0 0-1.038 3.301c0 1.76.629 3.374 1.886 4.841 1.258 1.467 2.809 2.201 4.653 2.201 1.132 0 2.347-.335 3.647-1.006Zm.691 23.515c1.803-1.048 3.176-2.326 4.119-3.835.943-1.509 1.415-3.018 1.415-4.527 0-1.886-.703-3.479-2.107-4.779-1.404-1.299-3.364-1.949-5.879-1.949-.796 0-1.928.136-3.395.409-1.467.272-2.714 1.121-3.741 2.546-1.027 1.425-1.54 3.081-1.54 4.967a8.5 8.5 0 0 0 .377 2.453c.503 1.676 1.498 2.913 2.986 3.709 1.488.797 3.218 1.195 5.188 1.195.88 0 1.739-.063 2.577-.189Zm26.06-1.845c-.29.036-.49.054-.598.054-3.629 0-6.822-1.887-9.58-5.66-2.612-3.593-3.919-7.548-3.919-11.866 0-3.048.726-5.624 2.177-7.729 1.67-2.394 4.137-3.955 7.403-4.68 1.052-.218 2.014-.327 2.884-.327 3.52 0 6.296 1.615 8.328 4.844 1.814 2.867 2.721 6.404 2.721 10.614 0 3.918-.78 7.275-2.34 10.069-1.742 3.12-4.1 4.681-7.076 4.681Zm-.326-5.334c2.141-.508 3.773-1.615 4.898-3.32 1.016-1.524 1.524-3.339 1.524-5.443 0-2.831-.816-5.398-2.449-7.702-1.633-2.304-3.647-3.456-6.042-3.456-.471 0-.979.054-1.524.163-1.995.472-3.528 1.633-4.599 3.484-1.07 1.85-1.605 3.955-1.605 6.313 0 2.758.653 5.098 1.959 7.022 1.451 2.14 3.393 3.211 5.824 3.211.544 0 1.215-.091 2.014-.272Zm26.151-17.931c.262.054.44.097.534.128 3.139 1.063 5.349 3.63 6.629 7.702 1.208 3.873 1.18 7.677-.084 11.412-.893 2.637-2.275 4.653-4.147 6.049-2.145 1.583-4.736 2.21-7.774 1.882-.974-.12-1.838-.307-2.591-.562-3.045-1.031-4.973-3.241-5.786-6.629-.73-3.012-.478-6.338.754-9.979 1.148-3.39 2.805-6.065 4.973-8.025 2.421-2.19 4.918-2.849 7.492-1.978Zm-1.279 4.71c-2.001-.187-3.738.292-5.21 1.438-1.326 1.021-2.296 2.442-2.913 4.262-.828 2.449-.874 4.909-.136 7.38s2.143 4.058 4.215 4.759c.408.138.863.24 1.366.305 1.864.176 3.531-.379 4.998-1.667 1.468-1.287 2.548-2.951 3.238-4.991.808-2.386.928-4.602.361-6.648-.629-2.277-1.995-3.772-4.098-4.484-.471-.159-1.078-.277-1.821-.354Zm34.658 4.818-.151 3.518c-.156 3.643-.479 6.273-.968 7.888-.78 2.526-2.237 4.708-4.371 6.546-1.22 1.039-2.511 1.802-3.875 2.288-1.363.487-2.694.703-3.992.647-1.801-.077-3.424-.619-4.871-1.625-1.446-1.006-2.532-2.343-3.257-4.01.169-.035.526-.04 1.07-.017.628.027 1.694.125 3.197.295 1.503.169 2.464.263 2.883.281 1.843.079 3.212-.051 4.107-.391 1.236-.45 1.882-1.324 1.938-2.622.018-.419-.062-.989-.241-1.71-.436-1.571-2.122-2.86-5.058-3.867-3.349-1.151-5.99-3.635-7.924-7.452-1.621-3.3-2.347-6.918-2.178-10.855.178-4.146 1.297-7.727 3.356-10.743 2.238-3.26 5.149-5.107 8.734-5.541 1.477-.188 2.801-.257 3.974-.207 3.643.156 6.123 1.521 7.439 4.095 1.046 2.017 1.478 5.161 1.294 9.433-.061 1.424-.242 3.702-.545 6.836-.302 3.134-.489 5.538-.561 7.213Zm-10.08.26c2.359-.234 4.155-1.017 5.387-2.349 1.099-1.17 1.689-2.697 1.77-4.581.133-3.099-.883-6.31-3.048-9.634-2.165-3.323-4.295-5.03-6.388-5.12a3.51 3.51 0 0 0-.823.091c-1.567.352-2.98 1.739-4.237 4.16-1.258 2.422-1.947 5.035-2.067 7.841-.115 2.68.378 4.862 1.481 6.546 1.301 1.944 3.292 2.973 5.972 3.088l.691.03c.251.01.672-.013 1.262-.072Zm19.856-5.913a140.69 140.69 0 0 0-.074 3.207 135.316 135.316 0 0 1-.086 3.457c-.106 2.471-.351 4.286-.737 5.444-.529 1.571-1.404 2.415-2.626 2.53a519.612 519.612 0 0 1-1.201-4.268c-.284-3.159-.345-6.623-.183-10.392.136-3.182.408-5.856.816-8.02.407-2.164.972-3.336 1.692-3.515 1.175.974 1.948 2.035 2.318 3.184.371 1.148.523 2.476.459 3.984a39.393 39.393 0 0 1-.158 2.196c-.074.752-.147 1.483-.22 2.193Zm20.306 5.551c-1.991 2.308-6.79 2.255-8.178 2.997-2.222 1.188-.352 2.813 1.356 3.605 1.875.869 5.3 1.559 5.736 1.71 2.459.847-7.036 3.78-10.322 1.362-5.487-4.039-5.984-13.56-1.232-18.358 4.2-4.241 11.366-2.005 12.831 3.654.289 1.117.561 4.158-.191 5.03Zm-7.247-3.14c.156.034.319.037.478.027.181-.011.366-.029.536-.09.673-.244.74-1.016.609-1.619-.211-.969-1.051-1.866-2.033-2.063-.745-.15-1.754.009-2.062.814-.069.181-.082.38-.089.573-.01.237.088.561.188.77.441.923 1.394 1.444 2.373 1.588Zm-93.64 71.49c0 3.547-1.535 10.93-4.606 13.395-3.071 2.466-6.531 3.698-10.38 3.698-1.773 0-3.481-.324-5.125-.973-3.07-1.211-5.882-4.044-8.433-8.498-2.682-4.671-4.023-9.45-4.023-14.337 0-5.623.584-10.078 1.752-13.364 1.471-4.109 4.109-7.504 7.915-10.186 1.47-1.038 2.973-1.805 4.508-2.303a14.987 14.987 0 0 1 4.639-.746c3.027 0 5.752.93 8.174 2.79 2.422 1.86 4.044 4.26 4.866 7.201-.173.043-.433.065-.779.065-.951 0-3.757 1.632-8.125-.358-2.076-.951-3.893-1.427-5.45-1.427-1.686 0-3.416.519-5.19 1.557-3.157 1.903-3.001 1.871-3.909 5.158-.562 2.033-.843 5.666-.843 10.899 0 4.671.475 8.325 1.427 10.964 1.297 3.546 7.777 4.614 9.634 3.666 1.31-.668 2.568-1.765 6.201-4.749 1.86-1.514 5.412-2.149 7.747-2.452ZM292 297.314c.291.036.491.054.6.054 3.633 0 6.831-1.889 9.592-5.668 2.616-3.597 3.924-7.557 3.924-11.881 0-3.052-.727-5.632-2.18-7.739-1.671-2.398-4.142-3.96-7.412-4.687-1.054-.218-2.017-.327-2.889-.327-3.524 0-6.304 1.617-8.338 4.85-1.817 2.871-2.725 6.413-2.725 10.628 0 3.924.781 7.285 2.343 10.083 1.744 3.125 4.106 4.687 7.085 4.687Zm.327-5.341c-2.143-.509-3.778-1.617-4.905-3.325-1.017-1.526-1.526-3.342-1.526-5.45 0-2.834.818-5.405 2.453-7.712 1.635-2.307 3.651-3.461 6.049-3.461.473 0 .981.055 1.526.164 1.999.472 3.534 1.635 4.606 3.488s1.607 3.96 1.607 6.322c0 2.762-.654 5.105-1.962 7.031-1.453 2.143-3.397 3.215-5.831 3.215-.545 0-1.217-.09-2.017-.272Zm24.06-15.471c.283 2.754.58 5.332.892 7.735.311 2.402.616 4.632.914 6.688.234 2.28.259 3.897.074 4.851-.185.954-.729 1.477-1.632 1.57-.387.039-.693.027-.917-.037-.918-.471-1.622-1.507-2.112-3.109-.491-1.602-.875-3.758-1.153-6.468-.093-.904-.233-2.476-.419-4.718a289.989 289.989 0 0 0-.479-5.298 500.187 500.187 0 0 0-.638-5.902 438.524 438.524 0 0 1-.552-5.063c-.331-3.226-.435-5.292-.31-6.196.125-.904.655-1.882 1.59-2.935 1.452.59 2.346 1.151 2.683 1.681.337.531.645 2.151.923 4.862.119 1.162.312 3.25.578 6.266.266 3.016.452 5.041.558 6.073Zm10.532-1.453c0 3.059.031 5.928.094 8.605.062 2.676.135 5.162.218 7.457 0 2.533-.135 4.314-.405 5.342-.271 1.028-.843 1.541-1.717 1.541-.375 0-.666-.047-.874-.143-.833-.621-1.405-1.84-1.717-3.657-.313-1.816-.469-4.23-.469-7.242 0-1.004.021-2.749.063-5.235.041-2.485.062-4.445.062-5.879 0-2.343-.01-4.53-.031-6.561a546.697 546.697 0 0 1-.031-5.629c0-3.585.104-5.868.312-6.848.208-.98.812-1.996 1.811-3.047 1.331.812 2.133 1.529 2.403 2.151.271.621.406 2.438.406 5.449 0 1.291-.021 3.609-.062 6.956a663.898 663.898 0 0 0-.063 6.74Zm25.46-1.593c.503 1.474.754 2.764.754 3.869 0 1.274-.385 2.162-1.156 2.664-.603.402-1.525.603-2.764.603-.771 0-1.508-.05-2.212-.151-.234 0-.502-.016-.804-.05a8.299 8.299 0 0 0-.904-.05c-2.145 0-3.803.486-4.976 1.457-1.039.872-1.558 1.944-1.558 3.217 0 .503.067.938.201 1.307.369 1.072.896 1.843 1.583 2.312.687.469 1.5.703 2.438.703.971 0 2.111-.209 3.417-.628 1.307-.419 2.58-.846 3.82-1.282 0 1.81-.578 3.225-1.734 4.247-1.156 1.022-2.622 1.533-4.398 1.533-2.144 0-4.138-.687-5.98-2.06-2.078-1.542-3.569-3.686-4.473-6.434-.536-1.608-.804-3.4-.804-5.377 0-3.719.904-6.902 2.713-9.549 1.977-2.915 4.557-4.373 7.74-4.373 1.977 0 3.77.687 5.378 2.061 1.608 1.374 2.848 3.367 3.719 5.981Zm-8.594 1.608c.134.033.335.05.603.05 1.039 0 1.558-.519 1.558-1.558 0-.771-.285-1.491-.854-2.161-.671-.771-1.458-1.156-2.363-1.156-.703 0-1.231.159-1.583.477-.352.319-.527.746-.527 1.282 0 .67.284 1.307.854 1.91.57.603 1.34.988 2.312 1.156Zm27.573 17.473c-.317 1.687-1.181 2.905-2.592 3.656-1.271.682-2.735.867-4.39.556-1.258-.236-2.319-.753-3.185-1.551-1.391-1.214-2.395-2.799-3.011-4.756-.699-2.195-.812-4.55-.339-7.064.807-4.293 2.412-7.515 4.816-9.666 2.132-1.885 4.364-2.609 6.694-2.171 1.349.253 2.469.885 3.359 1.893.889 1.009 1.392 2.301 1.509 3.879-2.804-1.074-3.813-1.894-7.483-1.121-1.752.369-2.93 2.479-3.644 6.282-.611 3.25-.617 5.646-.018 7.187.511 1.334 1.534 2.145 3.067 2.433.889.167 3.787.619 5.217.443Z" style="fill-rule:nonzero"/><path d="M387.634 301.526a8.637 8.637 0 0 1-.846.017c-2.591-.149-4.328-1.57-5.213-4.264-.625-1.942-.824-4.878-.598-8.807.079-1.381.178-2.719.296-4.012.117-1.292.234-2.564.349-3.813.097-1.684-.078-3.535-.525-5.554-.997-4.519-10.637-9.183-10.597-9.874.052-.907.053-1.86.568-2.534 1.26-1.65 10.019.516 10.755-.221.347-.76.75-1.549 1.208-2.368.459-.818 1.114-1.484 1.967-1.999 1.522.651 2.567 1.318 3.134 2 .768.954 1.102 2.316 1 4.087.618.555 4.315 2.825 4.557 3.51.242.686.341 1.417.296 2.194a6.9 6.9 0 0 1-.707 2.689c-.417.842-4.491.797-4.988 1.159-.59 1.222-.683 1.331-.979 2.332-.296 1.001-.601 2.348-.915 4.041-.314 1.693-.503 3.101-.567 4.224-.157 2.72.108 5.269.794 7.648a288.733 288.733 0 0 0 2.185 7.209c-.03.518-.119.935-.267 1.251-.148.317-.451.679-.907 1.085Zm12.017-14.517a97.466 97.466 0 0 0-.094 2.755 96.34 96.34 0 0 1-.106 2.971c-.122 2.122-.384 3.676-.785 4.664-.552 1.339-1.455 2.045-2.709 2.117a384.79 384.79 0 0 1-1.21-3.696c-.274-2.722-.319-5.702-.132-8.939.157-2.733.45-5.026.88-6.877.43-1.852 1.015-2.847 1.756-2.985 1.201.863 1.988 1.793 2.362 2.788.373.996.523 2.141.449 3.436-.036.612-.093 1.24-.173 1.885l-.238 1.881Zm23.502-12.182c.372.304.524 1.05.456 2.239-.176 3.064-1.412 6.853-3.708 11.365-2.441 4.785-4.59 7.125-6.447 7.018-1.64-.094-3.033-1.116-4.177-3.064-.866-1.525-1.72-3.998-2.563-7.419a523.026 523.026 0 0 1-2.403-10.187c.349-.043.567-.062.653-.057.475.028 1.425 1.212 2.85 3.553s3.562 3.594 6.412 3.758c2.763.159 4.815-.869 6.155-3.082 1.627-2.668 2.551-4.042 2.772-4.124Zm17.91 3.843c-1.035 1.103-2.674 1.623-3.603 2.743-1.661 2 1.367 3.316 3.555 3.679 2.104.348 5.416-.039 5.792.252 1.806 1.397-1.184 2.671-5.341 3.332-6.942 1.103-14.295-5.432-14.376-12.399-.071-6.158 6.246-8.64 11.982-6.775 3.259 1.059 4.788 5.097 4.496 5.958-.463 1.361-1.426 2.345-2.505 3.21Zm-5.993-2.337c.139-.089.259-.206.367-.33.122-.141.243-.29.322-.46.308-.67-.21-1.279-.748-1.62-.864-.547-2.132-.58-2.988-.002-.651.439-1.265 1.295-.896 2.105.082.181.219.335.356.481.167.178.475.341.701.419.998.345 2.071.023 2.886-.593Z" style="fill-rule:nonzero"/></svg>