<svg xmlns="http://www.w3.org/2000/svg" xml:space="preserve" style="fill-rule:evenodd;clip-rule:evenodd;stroke-linejoin:round;stroke-miterlimit:2" viewBox="0 0 239 72"><path d="M0 0h238.854v72H0z" style="fill:none"/><clipPath id="a"><path d="M0 0h238.854v72H0z"/></clipPath><g clip-path="url(#a)"><path d="M.225 0H245.57v72H.225z" style="fill:none"/><path d="M114.46 35.261v-.08c0-3.766-2.003-5.65-5.249-6.892 2.004-1.122 3.687-2.885 3.687-6.051v-.08c0-4.408-3.527-7.253-9.257-7.253H90.618v28.05h13.344c6.331 0 10.498-2.565 10.498-7.694Zm-7.693-11.981c0 2.084-1.723 2.965-4.448 2.965h-5.69v-5.93h6.091c2.604 0 4.047 1.042 4.047 2.885v.08Zm1.562 11.22c0 2.084-1.642 3.045-4.367 3.045h-7.333v-6.171h7.132c3.166 0 4.568 1.162 4.568 3.046v.08Zm22.24-7.053v-6.371c-3.606-.16-5.61 1.763-6.852 4.729v-4.328h-6.091v21.478h6.091v-7.934c0-5.129 2.484-7.574 6.531-7.574h.321Zm9.056-8.334v-4.248h-6.411v4.248h6.411Zm-.16 23.842V21.477h-6.091v21.478h6.091Zm24.483-10.138v-.08c0-6.091-3.286-11.661-10.458-11.661-6.251 0-10.619 5.049-10.619 11.18v.08c0 6.572 4.768 11.1 11.22 11.1 3.887 0 6.772-1.523 8.775-4.007l-3.486-3.086c-1.683 1.563-3.166 2.204-5.209 2.204-2.725 0-4.648-1.442-5.249-4.207h14.946c.04-.561.08-.922.08-1.523Zm-5.93-2.284h-9.177c.481-2.765 2.124-4.568 4.649-4.568 2.564 0 4.167 1.843 4.528 4.568ZM98.862 62.009V51.468h-1.457v4.505h-5.382v-4.505h-1.457v10.541h1.457v-4.683h5.382v4.683h1.457Zm12.43 0h1.576l-4.193-10.541h-1.68l-4.193 10.541h1.561l1.115-2.944h4.669l1.145 2.944Zm-3.494-9.025 1.829 4.728h-3.628l1.799-4.728Zm9.01-1.517h1.487v10.542h-1.487V51.467Zm12.073 10.542h1.695l-2.513-4.416c1.591-.297 2.558-1.472 2.558-2.988 0-1.74-1.234-3.137-3.227-3.137h-3.97v10.541h1.472v-4.312h1.576l2.409 4.312Zm-3.985-5.62v-3.613h2.231c1.189 0 1.992.714 1.992 1.829 0 1.085-.803 1.784-1.992 1.784h-2.231Zm16.356-4.922v10.542h3.687c1.933 0 3.256-1.205 3.256-2.87 0-1.174-.698-2.245-1.903-2.542.922-.342 1.576-1.145 1.576-2.275 0-1.665-1.174-2.855-3.182-2.855h-3.434Zm1.457 4.609v-3.33h1.754c1.205 0 1.933.654 1.933 1.65 0 .982-.698 1.68-1.873 1.68h-1.814Zm0 4.654v-3.405h2.082c1.278 0 1.918.714 1.918 1.725 0 1.026-.803 1.68-1.978 1.68h-2.022Zm12.4-3.226v4.505h1.457v-4.505l3.717-6.036h-1.665l-2.736 4.698-2.736-4.698h-1.754l3.717 6.036Zm15.284-6.037v10.542h3.688c1.933 0 3.256-1.205 3.256-2.87 0-1.174-.699-2.245-1.903-2.542.922-.342 1.576-1.145 1.576-2.275 0-1.665-1.175-2.855-3.182-2.855h-3.435Zm1.457 4.609v-3.33h1.755c1.204 0 1.933.654 1.933 1.65 0 .982-.699 1.68-1.874 1.68h-1.814Zm0 4.654v-3.405h2.082c1.279 0 1.918.714 1.918 1.725 0 1.026-.803 1.68-1.977 1.68h-2.023Zm15.404 1.279h1.695l-2.513-4.416c1.591-.297 2.558-1.472 2.558-2.988 0-1.74-1.234-3.137-3.227-3.137h-3.97v10.541h1.472v-4.312h1.576l2.409 4.312Zm-3.985-5.62v-3.613h2.231c1.189 0 1.992.714 1.992 1.829 0 1.085-.803 1.784-1.992 1.784h-2.231Zm12.564 1.115v4.505h1.457v-4.505l3.717-6.036h-1.665l-2.736 4.698-2.735-4.698h-1.755l3.717 6.036Zm15.449 4.505h1.576l-4.193-10.541h-1.68l-4.193 10.541h1.561l1.115-2.944h4.669l1.145 2.944Zm-3.494-9.025 1.828 4.728h-3.627l1.799-4.728Zm17.678 9.025V51.468h-1.457v8.088l-5.264-8.088h-1.948v10.541h1.458v-8.594l5.694 8.594h1.517Zm-31.457-19.085V14.852h-2.219v12.031h-19.112V14.852h-2.219v28.072h2.219V28.931h19.112v13.993h2.219Zm21.544 0V29.357c0-5.631-3.498-8.532-9.087-8.532-2.986 0-5.333.768-7.722 1.877l.768 1.834c2.005-1.023 4.181-1.749 6.826-1.749 4.479 0 7.167 2.261 7.167 6.656v.938c-2.09-.554-4.181-.938-7.21-.938-5.631 0-9.513 2.559-9.513 7.082v.085c0 4.522 4.351 6.826 8.404 6.826 4.138 0 6.826-2.048 8.319-4.138v3.626h2.048Zm-2.005-8.149c0 3.968-3.797 6.698-8.234 6.698-3.328 0-6.314-1.834-6.314-4.991v-.085c0-3.03 2.56-5.077 7.167-5.077 3.115 0 5.546.512 7.381.981v2.474Zm8.319-17.249v-2.713h-2.603v2.713h2.603Zm-.256 25.398V21.166h-2.091v21.758h2.091Zm16.126-19.795v-2.304c-4.309-.171-7.935 2.645-9.641 6.527v-6.186h-2.091v21.758h2.091v-8.917c0-7.081 4.394-10.878 9.428-10.878h.213Z" style="fill:#e5e7eb;fill-rule:nonzero"/><path d="M39.487 3.898c23.091 0 26.438 6.776 26.438 12.266 0 4.192 5.132 35.197 5.132 35.197l3.652-.004s.158-.421 0 0c-.428 1.137.582-1.177 0 0-1.895 3.829-5.159 7.52-9.639 10.452-8.755 5.73-18.891 9.786-29.355 9.786-9.565 0-14.853-1.028-19.534-3.984-1.663-1.051-2.474-3.636-2.474-5.602 0-5.311 3.732-5.962.02-9.76-2.541-2.6-5.678-3.017-7.167-4.587-1.267-1.335-1.763-2.752-1.763-5.739 0-.754-.177-19.077-.177-25.84 0-4.192 11.776-12.185 34.867-12.185Z" style="fill:#ccc"/><path d="M35.593.515c3.653 0-3.653 0 0 0 16.628 0 35.275 4.344 35.275 15.656 0 7.936.192 35.168.192 35.168s.292-1.137 0 0c-1.481 5.764-13.809 11.063-25.963 13.069-2.331.384-4.506.793-9.373.793-5.736 0-10.943-.95-13.081-2.114-.527-.287-1.348-.736-1.348-1.337l-.004-26.457c0-5.372.22-6.409 2.131-8.321C24.643 25.751 35.7 14.813 35.7 14.813s-20.014-.125-25.088-.125c-4.261 0-5.444.97-5.444 6.956 0 2.345.047 16.317-.026 20.807-.006.313-.116.735-.409.845-.401.15-3.349.055-3.349.055V14.543C1.384 4.797 12.502.515 35.593.515Z" style="fill:#e5e7eb"/></g></svg>