<svg xmlns="http://www.w3.org/2000/svg" xml:space="preserve" style="fill-rule:evenodd;clip-rule:evenodd;stroke-miterlimit:10" viewBox="0 0 109 109"><path d="M.074.184h108v108h-108z" style="fill:none"/><clipPath id="a"><path d="M.074.184h108v108h-108z"/></clipPath><g clip-path="url(#a)"><path d="M12.545 49.264 1.288 45.239m10.19-6.659-10.19 6.659" style="fill:none;fill-rule:nonzero;stroke:#000;stroke-width:.52px"/><path d="m11.478 38.58 5.472-9.571" style="fill:none;fill-rule:nonzero;stroke:#000;stroke-width:.45px"/><path d="m23.191 26.956-6.241 2.053" style="fill:none;fill-rule:nonzero;stroke:#000;stroke-width:.42px"/><path d="m23.187 40.899-6.237-11.89" style="fill:none;fill-rule:nonzero;stroke:#000;stroke-width:.45px"/><path d="m11.478 38.58 11.709 2.319" style="fill:none;fill-rule:nonzero;stroke:#000;stroke-width:.52px"/><path d="m1.288 45.239 21.899-4.34" style="fill:none;fill-rule:nonzero;stroke:#000;stroke-width:.38px"/><path d="M54.854 79.7a1.639 1.639 0 1 1-3.276.117 1.639 1.639 0 0 1 3.276-.117m52.921-27.47a1.638 1.638 0 1 1-3.274.118 1.638 1.638 0 0 1 3.274-.118M17.884 28.975a.934.934 0 1 1-1.869.068.936.936 0 0 1 1.869-.068m7.082 23.403a1.638 1.638 0 1 1-3.274.118 1.638 1.638 0 0 1 3.274-.118m0-35.383a1.638 1.638 0 1 1-3.274.118 1.638 1.638 0 0 1 3.274-.118" style="fill-rule:nonzero"/><path d="M24.966 16.995a1.638 1.638 0 1 1-3.274.118 1.638 1.638 0 0 1 3.274-.118M2.235 45.204a.97.97 0 1 1-1.939.07.97.97 0 0 1 1.939-.07m10.072-6.654a.83.83 0 1 1-1.66.062.83.83 0 0 1 1.66-.062m1.809 10.657a1.572 1.572 0 1 1-3.141.115 1.572 1.572 0 0 1 3.141-.115m10.321-8.353a1.251 1.251 0 1 1-2.5.09 1.251 1.251 0 0 1 2.5-.09m-9.177 18.75a1.247 1.247 0 1 1-2.492.09 1.247 1.247 0 0 1 2.492-.09M3.98 55.705a.797.797 0 1 1-1.594.056.797.797 0 0 1 1.594-.056" style="fill-rule:nonzero"/><path d="M3.98 55.704a.798.798 0 1 0-1.594.06.798.798 0 0 0 1.594-.06Z" style="fill:none;stroke:#000;stroke-width:.26px"/><path d="M10.381 68.732a.615.615 0 1 1-1.228.044.615.615 0 0 1 1.228-.044" style="fill-rule:nonzero"/><path d="M10.381 68.732a.614.614 0 1 0-1.228.046.614.614 0 0 0 1.228-.046Z" style="fill:none;stroke:#000;stroke-width:.2px"/><path d="M43.136 69.933a.73.73 0 1 1-1.458.052.73.73 0 0 1 1.458-.052" style="fill-rule:nonzero"/><path d="M43.135 69.933a.729.729 0 1 0-1.457.053.729.729 0 0 0 1.457-.053Z" style="fill:none;stroke:#000;stroke-width:.24px"/><path d="M21.599 71.913a.82.82 0 1 1-1.638.058.82.82 0 0 1 1.638-.058" style="fill-rule:nonzero"/><path d="M21.599 71.913a.82.82 0 1 0-1.639.06.82.82 0 0 0 1.639-.06Z" style="fill:none;stroke:#000;stroke-width:.26px"/><path d="M23.187 17.054v35.503m.201-.276 82.75.008m-83.02.09 30.469 27.38" style="fill:none;fill-rule:nonzero;stroke:#000;stroke-width:.67px"/><path d="m32.53 60.837-.741 6.51" style="fill:none;fill-rule:nonzero;stroke:#000;stroke-width:.45px"/><path d="m20.78 71.942 11.009-4.595M20.78 71.942l21.626-1.982m0 0-10.617-2.613" style="fill:none;fill-rule:nonzero;stroke:#000;stroke-width:.42px"/><path d="m20.78 71.942 11.75-11.105M9.767 68.755 3.183 55.733" style="fill:none;fill-rule:nonzero;stroke:#000;stroke-width:.38px"/><path d="M13.969 59.681 3.183 55.733" style="fill:none;fill-rule:nonzero;stroke:#000;stroke-width:.42px"/><path d="m13.969 59.681-1.424-10.417m-9.362 6.469L1.288 45.239" style="fill:none;fill-rule:nonzero;stroke:#000;stroke-width:.52px"/><path d="m13.969 59.681 9.188-18.779m-9.188 18.779L1.349 45.317" style="fill:none;fill-rule:nonzero;stroke:#000;stroke-width:.38px"/><path d="m13.9 59.722-4.133 9.033m11.013 3.187L9.767 68.755m11.013 3.187-6.72-12.249" style="fill:none;fill-rule:nonzero;stroke:#000;stroke-width:.49px"/><path d="m32.492 60.917-18.509-1.126" style="fill:none;fill-rule:nonzero;stroke:#000;stroke-width:.38px"/><path d="m23.187 52.557-9.204 7.234m9.204-18.892-10.642 8.365" style="fill:none;fill-rule:nonzero;stroke:#000;stroke-width:.49px"/><path d="M32.637 67.317a.848.848 0 1 1-1.695.06.848.848 0 0 1 1.695-.06m.747-6.511a.855.855 0 1 1-1.708.062.855.855 0 0 1 1.708-.062m-9.198-33.885a.999.999 0 1 1-1.997.071.999.999 0 0 1 1.997-.071m13.827 29.896c0 .818.455 1.329 1.366 1.527l.758.168c.444.094.679.377.679.706 0 .437-.283.724-.884.724-.318 0-.65-.052-.997-.157a3.885 3.885 0 0 1-.885-.377v.933c.579.31 1.206.467 1.882.467.586 0 1.075-.183 1.385-.481.309-.295.477-.695.477-1.139 0-.833-.485-1.378-1.407-1.575l-.833-.183c-.384-.086-.578-.303-.578-.646 0-.433.373-.702.985-.702.478 0 .99.134 1.535.399v-.933a3.883 3.883 0 0 0-1.52-.321c-.616 0-1.093.149-1.441.452a1.443 1.443 0 0 0-.522 1.138Zm7.461-.619v4.494h.929v-4.494h1.744v-.859H43.73v.859h1.744Zm5.997 4.494v-1.941h.915l1.012 1.941h1.03l-1.131-2.057c.34-.115.605-.317.795-.597.19-.28.284-.616.284-1 0-.482-.165-.885-.493-1.21-.329-.325-.754-.489-1.281-.489h-2.056v5.353h.925Zm0-4.524h1.001c.272 0 .496.078.668.235.172.161.258.37.258.635 0 .541-.34.873-.926.873h-1.001v-1.743Zm5.345 2.583c0 .646.183 1.15.552 1.512.366.362.863.545 1.486.545s1.116-.183 1.486-.545c.366-.362.548-.866.548-1.512v-3.412h-.925v3.397c0 .732-.411 1.176-1.109 1.176-.347 0-.62-.104-.818-.317-.197-.209-.298-.497-.298-.859v-3.397h-.922v3.412Zm6.632.265c.201.612.56 1.031 1.03 1.34.471.31 1.012.452 1.583.452a3.54 3.54 0 0 0 1.814-.474V59.33c-.589.384-1.176.575-1.758.575-.496 0-.944-.168-1.284-.474-.34-.307-.553-.807-.553-1.415 0-.609.213-1.113.553-1.419a1.89 1.89 0 0 1 1.284-.47c.616 0 1.157.19 1.758.575v-1.001c-.604-.313-1.112-.474-1.814-.474-.847-.011-1.676.347-2.199 1.004a2.466 2.466 0 0 0-.414.784 3.174 3.174 0 0 0-.153 1.001c0 .362.052.694.153 1Zm8.256-2.818v4.494h.93v-4.494h1.743v-.859h-4.416v.859h1.743Zm5.035 2.553c0 .646.182 1.15.552 1.512.366.362.862.545 1.486.545.623 0 1.116-.183 1.486-.545.365-.362.548-.866.548-1.512v-3.412h-.925v3.397c0 .732-.411 1.176-1.109 1.176-.347 0-.62-.104-.818-.317-.198-.209-.298-.497-.298-.859v-3.397h-.922v3.412Zm7.711 1.941v-1.941h.914l1.012 1.941h1.03l-1.131-2.057c.34-.115.605-.317.795-.597.191-.28.284-.616.284-1 0-.482-.164-.885-.493-1.21-.328-.325-.754-.489-1.28-.489h-2.057v5.353h.926Zm0-4.524h1c.273 0 .497.078.668.235.172.161.258.37.258.635 0 .541-.34.873-.926.873h-1v-1.743Zm8.797 4.524v-.847h-2.505V58.43h2.27v-.84h-2.27v-1.407h2.505v-.844h-3.416v5.353h3.416Zm2.317-3.875c0 .818.455 1.329 1.366 1.527l.758.168c.444.094.679.377.679.706 0 .437-.283.724-.884.724-.318 0-.65-.052-.997-.157a3.885 3.885 0 0 1-.885-.377v.933c.579.31 1.206.467 1.882.467.586 0 1.075-.183 1.385-.481.31-.295.478-.695.478-1.139 0-.833-.486-1.378-1.408-1.575l-.832-.183c-.385-.086-.579-.303-.579-.646 0-.433.373-.702.986-.702.477 0 .989.134 1.534.399v-.933a3.882 3.882 0 0 0-1.519-.321c-.616 0-1.094.149-1.441.452a1.441 1.441 0 0 0-.523 1.138ZM38.001 41.105h1.094v8.126h-1.094zm3.249 8.127v-8.127h1.116l3.066 5.004 3.082-5.004h1.094v8.127h-1.071v-6.223l-3.06 4.948h-.119l-3.037-4.948v6.223H41.25Zm10.513 0v-8.127h1.117l3.065 5.004 3.083-5.004h1.094v8.127h-1.071v-6.223l-3.06 4.948h-.119l-3.038-4.948v6.223h-1.071Zm10.514 0v-8.127h4.958v1.015H63.37v2.527h3.503v1.009H63.37v2.567h3.865v1.009h-4.958Zm6.762 0v-8.127h2.924c.759 0 1.383.245 1.87.734.487.489.731 1.082.731 1.777 0 .589-.154 1.093-.462 1.513a2.287 2.287 0 0 1-1.255.855l1.836 3.248h-1.23l-1.722-3.134h-1.598v3.134h-1.094Zm1.094-4.143h1.739c.503 0 .887-.135 1.154-.405.266-.27.399-.626.399-1.068 0-.439-.143-.797-.431-1.077-.287-.28-.661-.419-1.122-.419h-1.739v2.969Zm5.776-1.859c0-.313.064-.608.192-.884.129-.275.311-.518.547-.728.236-.21.538-.376.904-.499a3.864 3.864 0 0 1 1.224-.184c.737 0 1.479.159 2.227.476v1.111c-.778-.393-1.52-.589-2.227-.589-.536 0-.963.117-1.28.351-.318.234-.476.55-.476.946 0 .643.353 1.041 1.059 1.196l1.23.266c.684.152 1.207.428 1.57.831.362.402.544.903.544 1.504 0 .31-.061.607-.182.89a2.397 2.397 0 0 1-.515.759 2.384 2.384 0 0 1-.859.533 3.272 3.272 0 0 1-1.164.198 5.7 5.7 0 0 1-2.738-.708v-1.094c.386.223.821.411 1.307.564.485.153.962.23 1.431.23.54 0 .938-.126 1.195-.377.257-.252.386-.583.386-.995 0-.302-.106-.573-.318-.813-.211-.24-.515-.401-.912-.485l-1.173-.26c-1.315-.287-1.972-1.033-1.972-2.239Zm7.317-2.125h1.094v8.126h-1.094zm2.439 0h1.263l2.426 5.78 2.448-5.78h1.258l-3.672 8.302h-.114l-3.609-8.302Zm8.734 8.127v-8.127h4.958v1.015h-3.864v2.527h3.502v1.009h-3.502v2.567h3.864v1.009h-4.958Z" style="fill-rule:nonzero"/></g></svg>