<svg xmlns="http://www.w3.org/2000/svg" xml:space="preserve" style="fill-rule:evenodd;clip-rule:evenodd;stroke-linejoin:round;stroke-miterlimit:2" viewBox="0 0 133 26"><path d="M49.057 5.418s-.453 0-.673.396l-3.953 7.096s-.22.396-.306-.049l-1.341-6.998s-.086-.445-.539-.445h-3.951s-.453 0-.363.444L40.586 19s.089.444-.134.838l-2.897 5.103s-.224.394.229.394h3.742s.453 0 .678-.394L53.107 5.812s.224-.394-.229-.394h-3.821m6.15-5.074s-.453 0-.42.451l1.41 19.387s.033.452.486.452h3.784s.453 0 .623-.42l4.633-11.445s.17-.42.185.033l.396 11.379s.015.453.468.453h3.944s.454 0 .643-.411L80.363.755s.191-.411-.262-.411h-4.134s-.453 0-.644.41l-5.085 10.905s-.191.41-.216-.042L69.428.796s-.025-.452-.478-.452h-3.064s-.454 0-.631.417l-4.639 10.891s-.178.417-.212-.034L59.608.795s-.033-.451-.486-.451h-3.915m23.132 19.844s-.083.446.37.446h3.651s.454 0 .536-.446l1.478-7.996c.139-.741.609-3.351 3.158-3.351 2.442 0 1.939 2.775 1.807 3.51l-1.454 7.837s-.083.446.37.446h3.647s.454 0 .536-.446l1.493-8.051c.506-2.716.617-4.057-.394-5.567-.746-1.152-2.375-1.673-3.828-1.673-1.625 0-3.257.551-4.276 1.922h-.03s-.029 0 .053-.446L86.493.789s.082-.445-.371-.445h-3.646s-.453 0-.536.445l-3.601 19.399M102.034 5.93s.082-.446-.371-.446h-3.644s-.453 0-.536.446l-2.657 14.33s-.082.446.371.446h3.645s.453 0 .536-.446l2.656-14.33m.939-5.073s.083-.446-.371-.446H98.96s-.453 0-.535.446l-.475 2.564s-.083.446.37.446h3.643s.453 0 .536-.446l.474-2.564m8.948 0s.082-.446-.371-.446h-3.646s-.453 0-.536.446l-.861 4.627h-1.794s-.453 0-.536.446l-.557 3.012h1.793s.453 0 .371.445l-2.013 10.873s-.083.446.37.446h3.645s.454 0 .536-.446l2.098-11.318h1.743s.453 0 .536-.446l.554-3.012h-1.736s-.453 0-.371-.445l.775-4.182M22.68 13.071c.319-1.728 1.876-3.924 4.484-3.924 2.579 0 3.459 2.027 3.123 3.869-.277 1.48-1.68 3.894-4.534 3.894-2.746 0-3.338-2.414-3.073-3.839m13.482-7.207s.082-.446-.371-.446h-4.1l-.437 1.938c-.377-.933-1.465-2.459-3.962-2.459-4.058 0-8.231 3.124-9.156 8.119-.809 4.36 1.315 8.143 6.143 8.143 1.78 0 3.702-1.164 4.742-2.643l-.315 1.673s-.084.445.369.445h3.895s.454 0 .536-.446l2.656-14.324m81.483 5.916c.361-.904 1.582-2.603 3.937-2.603 2.361 0 2.947 1.699 2.962 2.151 0 0 .016.452-.437.452h-6.462Zm5.278 4.629c-.78.795-1.411 1.05-2.808 1.05-1.781 0-3.13-.916-3.069-2.723h10.955s.453 0 .514-.18c.061-.178.2-.678.312-1.279.855-4.638-1.876-8.216-6.516-8.216-4.631 0-8.688 3.822-9.474 8.077-.843 4.524 2.205 8.06 6.569 8.06 1.556 0 3.151-.215 4.583-1.123 1.453-.875 2.939-1.968 3.752-3.281 0 0 .238-.385-.215-.385h-4.603ZM8.062 3.821h1.893c2.539.092 3.472 1.387 3.132 3.225-.182.988-.992 2.728-4.323 2.648H7.382s-.453 0-.367-.445l1.047-5.428ZM.006 20.188s-.083.446.37.446h4.055s.453 0 .535-.446l1.135-6.105h.026s.024 0 .294.365l4.313 5.822s.269.364.722.364h5.016s.453 0 .167-.352l-5.028-6.2s-.286-.351.162-.416c3.359-.482 5.657-4.039 6.088-6.373.386-2.085.08-3.88-1.426-5.52C14.716-.09 13.129-.064 10.172.037H4.209s-.453 0-.536.446L.006 20.188Zm130.147-.624h.323c.272 0 .522-.014.522-.327 0-.263-.227-.304-.436-.304h-.409v.631Zm-.309-.881h.768c.472 0 .694.186.694.568 0 .358-.227.508-.521.54l.566.876h-.331l-.54-.854h-.327v.854h-.309v-1.984Zm.663 2.442c.786 0 1.394-.626 1.394-1.457 0-.812-.608-1.439-1.394-1.439-.795 0-1.403.627-1.403 1.439 0 .831.608 1.457 1.403 1.457Zm0-3.146c.927 0 1.703.731 1.703 1.689 0 .976-.776 1.707-1.703 1.707-.93 0-1.711-.731-1.711-1.707 0-.958.781-1.689 1.711-1.689Z" style="fill:#e5e7eb"/></svg>