<svg xmlns="http://www.w3.org/2000/svg" xml:space="preserve" style="fill-rule:evenodd;clip-rule:evenodd;stroke-linejoin:round;stroke-miterlimit:2" viewBox="0 0 450 450"><path d="M0 0h450v450H0z" style="fill:none"/><path d="M175.601 203.994s-1.313 0-1.95 1.147l-11.455 20.562s-.637 1.147-.886-.142l-3.886-20.278s-.249-1.289-1.562-1.289h-11.449s-1.312 0-1.051 1.286l7.693 38.07s.258 1.286-.388 2.428l-8.395 14.786s-.649 1.142.664 1.142h10.843s1.312 0 1.964-1.142l31.593-55.429s.649-1.141-.663-1.141h-11.072m17.82-14.703s-1.312 0-1.217 1.307l4.086 56.177s.096 1.309 1.408 1.309h10.965s1.313 0 1.805-1.217l13.425-33.163s.493-1.217.536.095l1.148 32.973s.043 1.312 1.356 1.312h11.428s1.316 0 1.863-1.191l26.091-56.411s.553-1.191-.76-1.191h-11.978s-1.313 0-1.866 1.188l-14.735 31.599s-.554 1.188-.626-.122l-1.721-31.355s-.073-1.31-1.385-1.31h-8.879s-1.315 0-1.828 1.208l-13.442 31.559s-.516 1.208-.615-.099l-2.306-31.361s-.096-1.307-1.408-1.307h-11.345m67.029 57.501s-.241 1.292 1.072 1.292h10.579s1.316 0 1.553-1.292l4.283-23.17c.403-2.147 1.765-9.71 9.151-9.71 7.076 0 5.618 8.041 5.236 10.171l-4.213 22.709s-.241 1.292 1.072 1.292h10.568s1.315 0 1.553-1.292l4.326-23.329c1.466-7.87 1.788-11.756-1.142-16.131-2.161-3.338-6.882-4.848-11.092-4.848-4.709 0-9.438 1.597-12.39 5.569h-.087s-.084 0 .153-1.292l3.005-16.181s.238-1.289-1.075-1.289h-10.565s-1.312 0-1.553 1.289l-10.434 56.212m68.66-41.315s.237-1.292-1.075-1.292h-10.559s-1.313 0-1.554 1.292l-7.699 41.524s-.237 1.292 1.075 1.292h10.562s1.313 0 1.553-1.292l7.697-41.524m2.721-14.7s.24-1.292-1.075-1.292h-10.554s-1.312 0-1.55 1.292l-1.376 7.43s-.241 1.292 1.072 1.292h10.556s1.313 0 1.553-1.292l1.374-7.43m25.928 0s.237-1.292-1.075-1.292h-10.565s-1.313 0-1.553 1.292l-2.495 13.408h-5.199s-1.312 0-1.553 1.292l-1.614 8.728h5.196s1.312 0 1.075 1.289l-5.833 31.507s-.241 1.292 1.072 1.292h10.562s1.315 0 1.553-1.292l6.079-32.796h5.051s1.313 0 1.553-1.292l1.605-8.728h-5.03s-1.313 0-1.075-1.29l2.246-12.118m-258.59 35.392c.925-5.007 5.436-11.37 12.994-11.37 7.473 0 10.023 5.873 9.049 11.211-.803 4.288-4.868 11.283-13.138 11.283-7.957 0-9.672-6.995-8.905-11.124m39.067-20.883s.237-1.292-1.075-1.292H125.28l-1.266 5.615c-1.092-2.703-4.245-7.125-11.481-7.125-11.758 0-23.85 9.052-26.53 23.526-2.345 12.634 3.81 23.596 17.8 23.596 5.158 0 10.727-3.373 13.74-7.659l-.912 4.848s-.244 1.289 1.069 1.289h11.286s1.316 0 1.553-1.292l7.697-41.506m236.109 17.142c1.046-2.619 4.584-7.542 11.408-7.542 6.841 0 8.539 4.923 8.583 6.233 0 0 .046 1.309-1.266 1.309h-18.725Zm15.294 13.414c-2.26 2.303-4.089 3.042-8.137 3.042-5.161 0-9.07-2.654-8.893-7.89h31.744s1.313 0 1.489-.522c.177-.515.58-1.964.904-3.706 2.478-13.439-5.436-23.807-18.881-23.807-13.419 0-25.174 11.075-27.452 23.404-2.443 13.109 6.389 23.356 19.035 23.356 4.508 0 9.13-.623 13.28-3.255 4.21-2.535 8.516-5.702 10.872-9.507 0 0 .689-1.115-.623-1.115h-13.338ZM56.812 199.366h5.485c7.357.267 10.061 4.019 9.075 9.345-.527 2.863-2.874 7.905-12.526 7.673h-4.005s-1.312 0-1.063-1.289l3.034-15.729Zm-23.344 47.426s-.24 1.292 1.072 1.292h11.75s1.313 0 1.55-1.292l3.289-17.69h.076s.069 0 .852 1.057l12.497 16.871s.78 1.054 2.092 1.054h14.535s1.312 0 .484-1.02l-14.57-17.965s-.828-1.017.47-1.206c9.733-1.396 16.392-11.703 17.641-18.466 1.118-6.042.231-11.243-4.132-15.995-4.981-5.399-9.58-5.323-18.148-5.031H45.647s-1.313 0-1.553 1.293l-10.626 57.098Zm377.121-1.808h.936c.788 0 1.512-.041 1.512-.948 0-.762-.658-.881-1.263-.881h-1.185v1.829Zm-.896-2.553h2.226c1.367 0 2.011.539 2.011 1.646 0 1.037-.658 1.472-1.51 1.565l1.64 2.538h-.959l-1.565-2.475h-.947v2.475h-.896v-5.749Zm1.921 7.076c2.278 0 4.04-1.814 4.04-4.222 0-2.353-1.762-4.17-4.04-4.17-2.303 0-4.065 1.817-4.065 4.17 0 2.408 1.762 4.222 4.065 4.222Zm0-9.116c2.687 0 4.935 2.118 4.935 4.894 0 2.828-2.248 4.946-4.935 4.946-2.694 0-4.957-2.118-4.957-4.946 0-2.776 2.263-4.894 4.957-4.894Z"/></svg>