<svg xmlns="http://www.w3.org/2000/svg" xml:space="preserve" style="fill-rule:evenodd;clip-rule:evenodd;stroke-linejoin:round;stroke-miterlimit:2" viewBox="0 0 5636 3000"><path d="M0 0h2560v1440H0z" style="fill:none" transform="scale(2.20143 2.08333)"/><path d="M120.4 407.4c3.7 0 5.2-.3 7.9-.6 6.7-.9 7.9-2.7 14-5.6 6.1-2.9 12.1-5.8 18.2-8.5 4-1.8 8.2-3.2 12.6-3.8 6.3-.8 12.1.5 17.3 4.1 1.8 1.3 3.5 2.8 5.1 4.4 3.5 3.5 5.2 7.8 5.2 12.8v5.3c-1.2-1-1.2-1.9-1.5-2.6-.5-1.9-.9-3.9-1.5-5.8-2.5-7.8-6.9-11.2-15.1-11.6-8.1-.4-15.9 1.1-23.4 4-6.5 2.6-12.6 5.9-18.2 10.1-5.3 4.1-11 7.3-17.1 10-1.7.7-3.3 1.5-5.3 2.4 3.4 2.1 6.7 2.7 9.9.9 3.5-1.9 6.9-4 10.1-6.3 7-5.2 14.4-9.8 22.7-12.8 5.5-2 11.2-3.4 17-3.7 1.5-.1 3-.1 4.5.1 5.6.8 10 5.6 10 11.4-1.2-.6-2.2-1.1-3.2-1.7-3.9-2.3-8-3.9-12.6-4-5.3-.1-10.1 1.6-14.3 4.7-3.7 2.6-7.1 5.6-10.7 8.5-3.6 2.8-7 5.9-10.7 8.4-5.7 3.9-12.1 5.6-19.1 4.9-1-.1-2-.3-3.4-.4.5.6.8 1.1 1.2 1.4 5.3 4.1 11.1 4.9 17.1 2 2.8-1.3 5.4-3 7.9-4.9 5.2-3.8 10.3-7.9 15.5-11.8 2.6-2 5.3-3.9 8.1-5.5 7.1-4 13.4-3.3 19.4 2.1 2.1 1.9 3.8 4.1 5.6 6.3 1.6 1.9 3.1 3.8 5.5 4.9 2.5 1.2 2.7 3.6.6 5.4-2.9 2.5-3.4 5.5-3 9.1.7 6.1 1.2 12.2 1.7 18.4v1.5c-1-.3-1.8-.5-2.6-.8-2.4-.8-4.8-1.7-7.3-2.4-4.5-1.2-8.1.2-10.5 4.2-1.6 2.7-3.1 5.6-4.4 8.5-2 4.3-5.1 7.1-10 7.6-2 .2-3.1 1.8-4.4 3.1 1.1 1.9 2.4 3.4 4.2 4.6 4 2.6 8 5.3 12.1 7.8 8.3 5.2 17.1 6.3 26.4 3.1 6.2-2.1 11.9-5.1 16.4-10 4.9-5.3 7.1-11.7 7.3-18.8.2-5.2-.7-10.4-1.6-15.5-.6-3.4-1.4-6.7-2-10.1-.4-2.1-1.2-3.8-2.9-5.1-.6-.5-1.1-.9-1.8-1.5.6-.4.8-.6 1-.7 3.3-1.8 3.9-3.3 3.1-6.9-.4-1.5-.9-2.9-1.2-4.4-.2-.9-.2-1.8-.4-3.2 1.5.7 2.7 1 3.8 1.7 4.5 2.6 8.5 2 12.3-1.4 1.2-1.1 2.7-2 4.3-3.2.2 1.7.7 3 .5 4.3-1.1 8-6.489 15.101-5.389 22.901.8 5.9 2.838 12.189 3.238 18.189.4 6.1.696 8.196.396 14.296-.327 6.648-5.304 19.652-16.038 30.307-7.57 7.514-15.559 14.511-28.41 14.329-4.851-.069-11.697-1.322-16.097-5.622l-1.5-1.5c-.1 0-.2 0-.4-.1-.1.5-.2 1-.2 1.5 0 2.9.1 5.8.2 8.6.1 3.2-.3 6.4-1.8 9.3-1.7 3.4-4.5 5.3-8.3 5.7-4.7.4-8.8-1-12.7-3.4-1.4-.9-2.8-1.8-4.2-2.8-.9 2.7-.1 5.4 2.1 7.1 1 .8 2.2 1.4 3.3 1.8 2.7 1 4.3 2.9 5 5.7 1.7 7 3.5 13.9 5 21 2.7 12.2 4.4 24.5 4.3 37.1-.1 14-2.2 27.7-7.7 40.7-4.9 11.6-12.2 21.5-21.8 29.7-1.3 1.1-2.6 2.3-3.9 3.5-1.7 1.6-2.1 3.5-1.1 5.7 1.4 2.8 2.9 5.5 4.3 8.3.8 1.6 1.7 3.2 2.5 4.8-3.3 2.3-9.8 2.5-13.3-1.4-6.1-6.8-11.7-14-16.9-21.5-1.6-2.3-1.1-3.7 1.4-5 .6-.3 1.3-.6 2-.8 9.1-3.2 15.6-9.3 19.9-17.7 4-7.8 6-16.1 7-24.8 1.3-12-.9-23.6-4.1-35-1-3.5-1.7-7-2.7-10.4-.6-2.3-.3-4.3.9-6.2l7.5-12.3c.6-1 1.2-1.9 1.6-3 .7-1.8.2-2.9-1.7-3.5-1.4-.4-3-.6-4.5-.9-2.8-.5-5.7-.9-8.5-1.3-.6-.1-1.3-.2-1.9-.2-2.5.1-4 1.3-3.9 3.8.1 2.7.6 5.4 1.1 8 .3 1.8 1 3.5 1.4 5.3.9 3.8-.1 6.9-3.1 9.5-3.3 2.9-6.6 5.8-9.8 8.9-7.4 7.4-16.4 11.5-26.6 13.3-3.9.7-7.7 1.3-11.6 1.8-1.5.2-3.1.1-4.5-.4-6.4-2.4-12.6-5.2-17.7-9.9-1.8-1.7-3.4-3.6-4.9-5.6-1.9-2.7-4.5-4.1-7.7-4.1-2.5 0-4.9.4-7.4.7-.8.1-1.5.2-2.8.4 2.8-5.9 6-10.6 11.3-13.7 2.3-1.3 4.5-1.6 6.8-.5 1.4.6 2.7 1.3 4 2.2 9.9 6.5 20.1 7.3 30.6 1.6 3.1-1.7 6.2-3.4 9.2-5.1 1-.5 1.9-1.2 2.8-1.8 2.2-1.7 2.5-3.8.9-6.1-.5-.7-1.2-1.3-1.7-2-.8-1.1-1.7-2.2-2.3-3.4-1-1.8-.7-3.6.7-5.1 1-1.1 2.2-2.1 3.5-2.9 2.7-1.7 5.5-3.2 8.4-4.7 5.9-3.1 7.7-6.6 7.1-13.3-.6-5.7-1-11.5-1.5-17.2v-1.9c1.3-.4 2.6-.7 3.9-1.1 1.2-.3 2.5-.5 3.7-.9 1.7-.6 3-1.7 3.6-3.9-1.6.2-3 .4-4.4.6-1.4.1-2.7.2-4.1.1-1.4 0-2.9 0-4.3-.2-1.6-.2-3.1-.9-4.1-2.2-2.8-3.7-4.9-7.7-5.2-12.4-.3-3.5 1-6.4 3.2-9 2.8-3.3 6.2-5.8 9.7-8.1 1.3-.8 2.6-1.6 3.8-2.6 1.6-1.3 1.8-2.5.1-3.7-2.2-1.6-2.8-3.7-3.2-6.2-3.2-17.3-6.5-34.5-9.7-51.8-.5-3-.8-6-1.1-9-.1-.6-.1-1.1-.2-1.7-.9-4.8-3.4-6.8-8.3-6.2-5.3.7-10.6 1.6-15.9 2.3-1.7.2-2.7 1.2-3.5 2.6-1.1 2-1.3 4.1-1.3 6.3 0 1 .1 2.1.2 3.3-.7-.2-1.2-.3-1.7-.5-.7-.3-1.5-.6-2.2-1-4.8-2.8-9.7-2.8-14.7-.6-1.5.6-3 1.1-4.8 1.8-.3-2.2.8-4 .5-6-.4-2.6-.5-5.3-.6-7.9-.1-1.9.4-3.2.7-4.8.1-.5.1-.9.2-1.4.5-3.6 2.4-5.9 5.9-6.7 5.3-1.1 10.6-2.3 16-3.1 10.2-1.5 20.5-1.7 30.9-1 3 .2 9.2.9 12.2 6.1 3.4 6.1 3.8 7.6 4.1 21m63.6 43.9c.2 0 .7 0 1.2-.1 3.9-.3 4.9-1.2 6-5 1.7-6.1-1.1-14.3-6.1-18.1-1.7-1.3-3.7-2-5.8-1.8-2.8.2-5.6.5-8.3 1-3.4.6-4.5 2.1-4.6 5.6-.3 9.5 7.8 18.1 17.6 18.4Z" style="fill:#ebebeb;fill-rule:nonzero" transform="rotate(-1.916 2926.553 5769.913) scale(4.14827)"/><path d="M184.8 443c-1.7.8-4.1 1.4-5.9-.2-2.5-2.4-5.2-4.5-7.6-7-2.4-2.6-1.7-5.3 1.6-6.5 2.7-1 5.4-.6 8 .2 1.2.4 1.8 1.4 1.8 2.6.1.8 0 1.6-.2 2.4-.3 1.5-1.2 2.9-1 4.4.4 1.5 1.5 3.4 3.3 4.1Z" style="fill:#ebebeb;fill-rule:nonzero" transform="rotate(-1.916 2926.553 5769.913) scale(4.14827)"/><path d="M248.5 315.1c2.9-.1 5.2.5 7.4 2.4 7.8 6.5 14.8 13.9 22 21.1 8.7 8.7 17.3 17.5 26 26.3.8.8 1.6 1.5 2.5 2.2 2.4 1.6 4.4 1.5 6.5-.5.6-.5 1.1-1.2 1.6-1.8 14.9-20.1 31.6-38.8 48.9-56.9 4.5-4.8 9.1-9.5 13.6-14.2 1.1-1.2 2.1-2.4 3-3.7 1.3-1.9 1.5-4 .7-6.2-.9-2.7-.7-3.7 1.6-5.6 5.1-4.3 10.2-8.7 15.4-13 7.6-6.3 15.3-12.6 22.9-19 3.9-3.3 8.1-6 12.7-8.1 1.3-.6 2.6-1.3 3.9-1.9.2.1.5.2.6.4 5.3 5.9 10.6 11.8 15.8 17.7.9 1.1 1.8 2.3 2.5 3.5 1.8 3.2 1.6 6.3-.5 9.3-1.2 1.6-2.6 3.1-4.1 4.4-10.2 8.7-20.4 17.5-30.7 26.1-3.5 3-7.4 5.6-11.2 8.3-3.3 2.3-5.8 2.2-9.1 0-3.2-2.2-5.9-1.8-8.3 1.4-2.2 3-4.4 6.1-6.5 9.2-9.6 13.8-19.2 27.7-28.9 41.5-6 8.5-9.3 18-10 28.3-.5 7.7-.6 15.5-.9 23.2-.7 17.3-1.3 34.5-2 51.8-.1 2-.5 4-1 5.9-.7 2.8-.8 5.4 2 7.2.4.3.6 1.1.6 1.7 0 1.5-.5 2.8-1.6 3.9s-1.4 2.4-1.5 3.9c-.6 10.8-1.4 21.5-2.1 32.3-.8 14.4-.9 28.7.6 43.1 1.2 11.8 2.4 23.7 2 35.6-.1 3.4-.3 6.9.5 10.3 1.2 4.8 3.4 8.9 7.5 11.9 2.2 1.7 4.3 3.5 6.8 5.6-1.2.5-1.9.9-2.6 1.1-3.2.8-6.4.7-9.4-.4-1.2-.4-2.5-1.1-3.5-2-3.5-3.2-7.8-4.6-12.3-5.6-2.6-.6-4.9.4-6.6 2.5-.4.4-.7.9-1.1 1.3-1.7 1.5-3.6 2.3-5.9 1.5-1.4-.5-2.9-1-4.3-1.5-2.2-.8-3.9-.1-5.2 1.7-.7 1-1.5 2.1-2.2 3.1-.5.7-1.1 1.4-1.7 2.3-.8-.5-1.5-.9-2.3-1.4-3.2-2-6.3-4.1-9.5-6-4.6-2.7-6.9-2.4-11.1 1.1-1.4 1.2-2.8 2.3-4.4 3.7-.9-1.2-1.8-2.2-2.6-3.3-3.1-4.6-7.2-6-12.5-4.4-1.6.5-3.2.7-5.2 1.2.4-2.1.8-3.9 1.2-5.8 1.4-7.1 3-14.2 4.1-21.4 1.1-7.1 1.7-14.3 2.3-21.4.8-8.4 1.5-16.7 2.2-25.1 1-12.7 1.8-25.4 2.7-38 .4-5.7.8-11.5 2.2-17.1 1.6-6.5 1.8-13.1 1.8-19.8 0-11.1 1.4-22 3.3-32.9 2.4-13.9 4.7-27.9 7.1-41.8.6-3.5 1.4-6.9 2.5-10.2 1.8-5.7 1.3-11-1.5-16.2-3.2-6-6.9-11.7-11.4-16.9-5.5-6.4-11.4-12.6-17.1-18.8-2-2.2-4-4.5-6-6.9-1.7-2.1-2.1-4.4-1.2-7 .4-1.2.7-2.2 1-3.2Z" style="fill:#ebebeb;fill-rule:nonzero" transform="rotate(-1.915 -5895.038 7572.804) scale(4.58296)"/><path d="M179.6 293.2c2.725-2.438 7.5 3.5 11.3 5.3 1.2.5 2.3 1 3.6 1.4 2.4.7 3.5.2 4.5-1.9 1.5-3 2.4-6.2 2.3-9.7-.1-1.7 0-3.4.3-5 .7-3.6 3.2-4.9 6.6-3.5 1 .4 1.8 1 2.8 1.4 1.1.5 2.2 1 3.3 1.3 2.4.7 3.9 0 4.8-2.3.7-1.8 1.1-3.7 1.6-5.5.5-1.8.8-3.8 1.5-5.5 2-5.3 6.1-7.3 11.7-6.1 2.1.5 4.2.9 6.4 1.1 4.1.3 7.5-1.4 10.1-4.5 2.4-2.9 5.8-3.6 9.1-1.7 1 .6 2 1.4 2.9 2.1 1.3.9 2.5 2 3.9 2.8 3.4 1.9 6.1 1.6 8.9-1.1.9-.8 1.6-1.8 2.5-2.6 1.7-1.7 3.3-3.5 5.2-5 2.4-1.9 4.247-6.228 6.547-4.228.328 4.181 2.97 9.822 5.026 12.445 1.973 2.517 5.707 4.394 7.127 7.283 1.4 2.9.3 4.8-2.8 5.4-2.3.4-4.6.7-6.9 1.1-2.8.5-4.4 2.2-4.8 4.9-.2 1.5-.5 3-.6 4.5-.3 3.1-1.8 5.2-4.7 6.3-.8.3-1.6.7-2.4 1.1-3.2 1.4-4.7 4-4.8 7.4 0 2.1 0 4.2.1 6.2 0 .9.1 1.8 0 2.6-.2 1.6-.9 2.2-2.5 2.4h-.2c-4-.7-7.8 0-11.5 1.6-2 .8-3.8.1-5.1-1.5-.8-.9-1.4-1.9-2.1-2.9-1.7-2.3-3.8-4.1-6.6-5-5.2-1.7-11.7 1.3-13.4 6.5-.9 2.5 0 4.9 1.6 6.9.9 1.1 2 2.1 3 3.1.7.7 1.4 1.3 2.2 1.9 6.4 4.7 10.1 11 11.9 18.6.3 1.5.8 2.9 1.2 4.4.7 2.5-.7 4.7-3.3 4.8-4.2.2-8.4.6-12.6-.4h-.2c-6.4 0-12.8-.2-19.2.2-6.2.4-8.2 4.4-5.3 9.9 1.1 2 2.5 3.9 4 5.7 1.7 2.2 3.5 4.2 5.2 6.3.9 1.1 1.7 2.3 2.2 3.7 1.3 3.2.2 5.6-3.1 6.4-5.7 1.5-10.9.6-15.5-3.3-8.3-7.2-15.8-15.1-22.5-23.8-10.9-14.2-18.7-30.1-24.5-47-.5-1.6-9.523-28.231-9.423-29.931.1-1.8.9-2.5 2.7-2.8 1.5-.2 3.955 2.912 4.27 4.406C156.978 284.257 168.3 303 170.2 304.1c1.3.8 2.6 1.6 4 2.1 1.5.6 2.5.1 3-1.4.3-1 .636-1.981.6-3-.306-8.592 1.649-8.465 1.8-8.6Zm-21.1-129.6c0-23.3 30.2-54.4 37.1-61.2 8.9-8.7 17.3-15.9 28.3-23.8 10.5-7.5 19.9-11.1 31.5-16.1 18.435-7.946 52.37-8.735 63.1-5.6 3.884 1.135 4.715 2.344 3.956 4.171-.617 1.484-6.584 3.395-7.256 3.529-4 .9-35.383 9.083-42.3 12.8-2.799 1.504-3.3 6 .8 9.5 1 .8 1.2 1.8 1.1 3-.3 2.6-.9 5-2.7 7-1.1 1.2-2.1 2.4-3.2 3.6-1.3 1.5-2.3 3.2-2.7 5.3-.6 3.8 1.2 7.2 4.8 9.1 1.3.7 2.8 1.3 4.1 2 3.1 1.7 3.8 3.6 2.7 7-.6 1.7-1.4 3.2-2.1 4.8-.5 1.2-1.1 2.4-1.3 3.6-.3 1.7.9 3.4 2.6 3.8.9.2 1.8.3 2.6.3 2.6 0 5.1-.2 7.7-.2 1.2 0 2.4-.1 3.5 0 2.4.3 4.1 2.4 3.7 4.8-.4 2.7-1.1 5.4-1.6 8.1-.2 1-.6 2-.8 3-.6 3.3.5 5.3 3.7 6.2 1.6.5 5.2 1.2 5.8 2.7 1.7 4 1.6 5.5 5.9 4.9 5.5-.8 8.5-.7 12.5.8 4.5 1.7 3.2 3.2 3.3 5.4 0 1.5-2.2 3.5-5.1 6.7-1.8 2.1-3.5 4.9-2.4 6.2 2.1 2.5 7.781 7.067 10.2 9.2 3.473 3.062 5.584 7.203 4.784 10.203-.5 2-6.853.911-9.423.793-6.499-.299-16.266 3.689-19.661 7.904-2.665 3.309-4.995 6.988-6.726 6.071-1.717-.911.357-11.542-1.137-12.837-2.4-2.1-5.037-1.134-5.437-4.234-.2-1.3-.1-2.4 0-4 .1-1.4.6-3.4.6-3.6.1-4.3 1.2-11.2-4-10.4-.7.1 2.9-1.6 0 0-8.3 1.7-13.6 7.7-19.8 2.5-1.7-1.5-2.3-7-.8-11.7 1.1-3.6 3.2-7.2-.9-8.3-.8-.2-2.9.4-3.7.7-1.6.7-3.1 1.6-4.8 2-5.5 1.1-10.1 1.5-11.6-1.8-.7-1.6-.1-5 0-7 .2-2.3 1.4-6 1.3-8.3 0-.6-.1-1.1-.2-1.7-.6-2.6-1.9-3.4-4.3-2.6-1.4.4-2.7 1.1-3.9 1.8-3.2 1.7-6.3 3.4-9.5 5-1.3.7-2.8 1.3-4.2 1.6-2.1.5-3.6-.4-3.8-2.5-.2-2.5 0-5.1.2-7.6s.7-5 1-7.4c.1-.5.1-.9.1-1.4 0-3.3-1.6-4.8-4.9-5.5-2.5-.6-6.8-1-8.6-1-15.009-.155-26.002 5.418-38.307 26.858-1.953 3.403-8.299 5.57-9.793 5.842m305-8.4c1.925-1.489 4.104-3.689 2.535-10.056-2.645-10.735-15.117-21.323-21.786-28.638-2.624-2.879-3.728-3.162-4.631-4.642-.326-.534-2.832-5.598-2.226-6.918.767-1.675 4.792.413 5.407.581.736.204 14.35 8.319 20.166 13.996 9.088 8.872 19.409 24.125 27.853 41.564 6.833 14.113 8.257 18.475 10.167 28.135 1.966 9.939 3.221 20.564 3.391 27.055.298 11.348-.394 19.333-1.42 25.144-.711 4.02-2.487 11.194-5.629 12.539-4.045 1.731-3.917 2.279-6.643-.809-.313-.354-1.38-1.659-.23-5.672.6-2.094 2.19-5.629 2.444-8.297.395-4.155.676-10.248.531-12.699-.571-9.629.728-20.363-5.907-25.945-2.971-2.499-10.522-2.938-12.622-2.438-1.7.4-2.3 1.5-3.4 4.1-2.1 4.9-6 7.1-11 7.6-4.9.5-10.3 1.1-13.7 4.4-3.1 3.5-1.4 5.4-3 7.7-1.5 2.2-5.6 4-9.6 3.4-1.8-.2-2.6-.5-3.4-1.1-.9-.6-1.9-1.3-2.8-1.8-5.6-3.4-8.8-3.1-13.5 1.4-.9.9-1.8 1.8-2.8 2.6-2.2 1.7-3.6 1.5-5.3-.7-.8-1.1-1.5-2.3-2.3-3.4-.9-1.3-1.8-2.7-2.9-3.8-2.9-2.9-7.4-2-9.2 2.1-.8 1.9-.8 4-.1 5.9.5 1.5 1.1 2.9 1.7 4.4.5 1.2 1.1 2.3 1.5 3.5.7 2 .5 4-1.2 5.5-2.7 2.3-5.2 4.7-8 6.8-4.2 3.1-7.1 3.1-11.4.1-.5-.4-1-.8-1.6-1.1-2.5-1.7-5.1-1.7-7.7-.2-1.1.6-2.2 1.4-3.3 1.9-3 1.3-6.057.454-6.2-2.8-.216-4.901.202-10.698-.82-14.549-1.311-4.939-4.495-8.925-5.883-11.522-3.68-6.884-1.959-7.226-.408-8.68 1.55-1.455 7.911-.649 9.711-.049 1 .3 2 .8 3 1.2 1.4.5 2.9 1 4.4 1.2 2.6.4 4.9-.5 6-2.9 1-2.1 1.5-4.4 2.1-6.6.6-2 .8-4.1 1.5-6 1.2-3.3 3.5-4.6 7-4 1.7.3 3.4.8 5.1 1.3.9.3 1.8.7 2.7.9 1.9.4 3-.1 4-1.8.3-.6.5-1.2.8-1.8 1.6-3.8 4.3-5.2 8.3-4 2.1.6 4.2 1.6 6.2 2.5 2 .8 3.9 1.8 6 2.5 3.9 1.3 6.3 0 7-4 .7-4.3 1.2-8.7.7-13.2-.1-.6-.1-1.7-.1-2.3.2-3 .3-6.1.5-9.1.1-1 .2-2.1.5-3.1.5-1.8 2.1-3 4-3 .9 0 1.8.2 2.7.5 2.1.8 4.2 1.6 6.2 2.4.7.3 1.5.6 2.2.9 3.9 1.5 5.8.6 7.4-3.2.3-.8.6-1.7 1-2.4 1.8-3.6 4.7-4.4 8.1-2.3 1.5.9 2.9 2 4.4 2.9 1.2.9 2.7.1 3.5-1.2M320 269.2c-10 0-17-4.6-21-13.8-8.7-20.1 4.4-36.6 18.8-40.7 10.3-2.9 22.6 1.7 28.5 9.2 1.5 1.9 2.4 4.1 2.9 6.5.5 2.4 1.3 4.8 1.5 7.3.2 2.3 0 4.8-.5 7.1-3 13.8-16.3 24.4-30.2 24.4Zm1.1-40.9c-.4 1 .2 1.4.9 1.9 1.4 1 2.9 2 4.3 3 4.2 3.3 5 7.8 2.2 12.3-2.2 3.6-5.7 4.7-9.8 3.1-3.7-1.4-5.5-4.6-4.6-8.6.4-1.7 1.1-3.3 1.9-4.9 1.1-2.2 2-3.8 1.2-6.6-1.8-.5-3.9.8-4.6 2-2.1 3.3-3.4 7.1-3.3 11.1.1 6.3 5.2 11.7 11.4 12.1 6.6.4 12-4.2 13.3-9.8.8-3.5 0-6.8-1-10.1-1.7-5.4-6.3-7.5-11.9-5.5Z" style="fill:#ebebeb;fill-rule:nonzero" transform="rotate(-1.915 -5895.038 7572.804) scale(4.58296)"/><path d="m398.8 223.1 2.7 4.2c.7 1.1 1.4 2.4 2.2 3.4 2.8 3.7 5.8 4.1 9.4 1.2 1.2-.9 2.2-2.1 3.3-3.2 1-1 2-2.1 3.2-2.9 2-1.4 3.9-1.2 5.7.3.8.7 1.5 1.4 2.1 2.3 1.1 1.7 1 3.3-.2 4.9-.4.6-1 1.1-1.5 1.5-14.7 12.4-29.4 24.9-44.1 37.3-1.1 1-2.4 1.8-3.8 2.5-1.9 1-3.8.7-5.3-.7-.9-.8-1.7-1.7-2.3-2.7-1.8-2.8-1.5-5.7.7-8.1.7-.8 1.5-1.4 2.3-2 6.4-4.7 12.8-9.3 19.2-13.9.6-.5 1.3-.9 1.9-1.4 4.7-3.9 6.2-8.7 4.6-14.6-.6-2.1-1.1-4.2-1.7-6.2-.3-1.1.2-1.6 1.6-1.9Z" style="fill:#ebebeb;fill-rule:nonzero" transform="rotate(-1.915 -5895.038 7572.804) scale(4.58296)"/><path d="M540.2 397.5c-3.8-7.3-11.7-14.6-16-17.4-3.5-2.3-11.2-1.3-13.4 0-4.8 4.3-6.8 12-6.5 22.5.3 10.8 2.4 24.8 2.3 35.6 0 5.1-.7 10-1.4 15-.7 5.1-.9 10.3-1 15.5 0 8.9-2.8 16.8-2.4 25.7.3 8.8-.2 17.3 1.7 25.9.3 1.5 1 2.9 1.2 4.4.5 2.7 1.1 5.3 1.2 8 .2 3.3.4 6-2.3 7.9-1.9 1.3-4 1.9-6.3 2.2-.7-1.2-1.2-2.3-1.9-3.4-1.7-2.6-4.1-4-7.3-3.7-8 .9-12.5 4-14.5 10.5-.9 2.9-.8 5.7.6 8.4 1.2 2.5 3.2 3.7 6 3.7.8 0 1.6-.1 2.4-.3 9-1.8 8.9-1.4 17-5.2 1.7-1.5 2.3-2.5 3.5-3.4 1.1-.7 1.9-.9 4.2-.8 1.1 1.1 1.1 2.7 1.1 4 0 .9-.5 3.4-1.5 4.3-3.8 2.7-2.1 2.5-12.6 5.3-3 .8-6.1 1-9.2 1.5-.4.1-.8.1-1.4.3-.4 1.3-.8 2.6-1.1 4-1.1 4.8-2.7 9.3-4.9 13.7-8 16.3-8.4 33.2-3.1 50.4 1.8 5.7 3.3 11.5 3.9 17.5.5 5.8.1 11.5-1.3 17.1-.9 3.6-2.9 6.6-5.8 8.8-3.1 2.3-6.4 4.3-9.6 6.3-.3.2-1.1.3-1.2.1-.3-.3-.6-1-.4-1.4.4-1.4.7-2.8 1.4-4.1 1.1-2.4 2.3-4.8 3.7-7 4.2-6.5 4.1-13.1.4-19.7-2.2-4-4.5-7.9-6.5-12-6.7-13.7-11.1-28.1-12.8-43.2-1.3-10.9-1.1-21.9.3-32.8 1.5-12.1 4.2-23.9 8.7-35.3 1.2-2.9 2.5-5.7 3.8-8.9-.8.4-1.4.6-1.9.8-4.7 2.6-9.3 5.2-14.1 7.7-6.2 3.2-12.6 5.4-19.5 6.3-10.4 1.3-19.9-.7-28-7.8-7.3-6.4-13.6-13.7-19.1-21.8-2.3-3.3-3.1-7.1-3.9-11-1.1-6-2.7-12.1-3.9-18.1-.5-2.7-1.4-5.4-2.2-8.1-.5-1.8.1-3.7.8-5.1 1.4.4 2.4.7 4.1-.2 1.6-.9 5.1-2.8 6.8-2.2 2.5.8 3.5 2.9 3.6 5.5.1 3.1 1.5 6.9 4.7 7.4 2.8.4 5.3 1.7 5.5 2.8.1.5.5 1.4-.1 1.3-3.4-.9-6.2.9-6.3 4.4-.1 2.2.2 4.5.8 6.6 1.5 5.8 4.7 10.7 8.4 15.2 3 3.7 6.6 7 10.5 9.8 8.2 5.8 17 6.8 26.4 3.5 6.9-2.4 12.6-6.6 16.9-12.4 3.4-4.5 3.6-9.2.8-14.1-1.4-2.4-2.8-4.9-4.2-7.3-1.3-2.3-3.2-3.8-6-3.6-1.2.1-1.8-.5-2.2-1.4-.4-.9-.8-1.7-1.3-2.6-3.2-6-7.6-6.9-12.8-2.6-.4.4-.8.8-1.3 1.1-1.3.7-2.5 1.4-3.9 1.8-1.9.6-2.9.1-3.6-1.8-.5-1.5-.9-3.1-.8-4.6.2-4.1.7-8.1 1.1-12.2.4-4.1.8-8.1 1.2-12.2.5-4.4-.5-8.6-1-12.9-.3-2.8-.3-5.6-.4-8.4 0-.8.2-1.6.4-2.3 1.3-4.2 4.5-5.7 8.6-4 .5.2 1 .4 1.6.7.3-1.1.5-2 .8-2.9 1-3 2.7-3.8 5.8-2.6.9.3 1.7.8 2.8 1.2.6-.8 1.1-1.6 1.7-2.3 1.5-1.9 2.4-2.3 4.8-1.5 1.1.3 2.1.8 3.1 1.1 4.2-2.7 7.3-2.4 12.2 1.4-.5 1.9-1.1 3.9-1.7 6.1.9-.3 1.5-.4 2-.6.8-.3 1.6-.7 2.4-1.1 4.3-2 5.9-1.2 7 3.4.6 2.6.5 5-.7 7.5-.6 1.2-1 2.5-1.5 3.8-.7 1.9-.2 3.6 1.3 5 .9.8 1.8 1.6 2.7 2.3 6.8 4.6 13.7 9.2 20.5 13.8 1 .7 1.8.9 2.8-.2-.3-5.3-.4-10.8-.9-16.2-.5-6.5-.3-12.9.3-19.4.7-7.7 1.4-15.4 2.3-23.1.7-5.8 2.4-11.4 5.2-16.6 2.8-5.1 6.8-8.6 12.6-9.9 5-1.1 12.6-.4 16.8 2.3 2.7 1.7 5.5 3.3 8 5.2 4.1 3.1 5.9 4.2 9.3 7.3 6.2 5.7 11.4 14.2 13.4 22.5.3 1.1.7 2.2 1.4 3 1.9 2.4 2.9 5.1 3.6 8 .4 1.4.7 2.8 1.1 4.2.2 1.1.2 1.1-1.1 2-.8-.5-1.6-1-2.4-1.4-2.1-1-3.7-.7-5.1 1.2-.9 1.2-1.6 2.5-2.5 4.1-2.5-5.3-5.8-9-12.2-8.7.4-.9.7-1.5 1-2.2 1.7-3.3 1.1-11.8-1.5-14.9m-117 46.8c.3 1.9.4 3.8 1 5.6 1 3.2 3.4 4.5 6.5 3.6 2.1-.6 4.2-1.6 6-2.8 4.7-3.1 8.1-7.4 10.9-12.2 1-1.8 2-3.7 2.7-5.6 1-2.8 0-4.8-2.6-6.1-.5-.3-1-.5-1.5-.6-5.7-1.7-10.9-.9-15.6 2.9-4.9 3.7-7 9-7.4 15.2Zm20.1 27.5c1.3.1 2.4.2 3.5.3 5.1 0 8.8-2.7 10.4-7.5.9-2.8-.6-5.7-3.4-5.9-2-.1-4.1.1-6.1.6-1.8.4-3.1 1.6-3.8 3.4-1.4 2.8-1.2 5.9-.6 9.1Z" style="fill:#ebebeb;fill-rule:nonzero" transform="rotate(-1.915 -1762.979 7312.792) scale(4.58296)"/><path d="M477 600c0-.5-.1-.8 0-1.1 2.2-6.5 4.3-13 6.7-19.5 2.6-6.8 4.9-10.9 11.7-13.5.9-.3 1.8-.7 2.7-1.1 3.9-1.6 6.6-.4 9.6-2.6 1.2-1.3 2.8-1.9 4.6-1.3 1.6.6 2.5 2 2.7 3.7.7 6.6.7 11.9 0 18.5-.6 5.8-3.6 10.3-8.3 13.7-3.2 2.3-6.8 3.9-10.6 5-7.5 2.3-15.9.5-19.1-1.8Zm-35.5-10.3c-4.8-2.1-9.7-4.1-14.4-6.3-3.5-1.7-5.8-4.7-7.1-8.4-.3-.7-.5-1.5-.7-2.3-.9-2.8-2-5.4-4-7.6-.8-.9-1.2-1.9-.7-3.1.5-1.2 1.5-1.7 2.7-1.7 4.8-.1 9.6 0 14.3 1.1 4.4 1.1 7.6 4 10.2 7.5 1.2 1.5 1.3 3.4 1 5.3-.2 1.6-.5 3.1-.8 4.7-.6 3.4-.6 6.8.1 10.2l-.6.6Zm-13-142c.6-.5 1.4-.9 2.3-1.3 1.8-1 2.6-6.1 1-9.4-1-2.2-.7-3.6 1.4-4.8 1.9-1.1 3.9-2.1 6-3 1.7-.7 3.4-.4 4.9 1 1.8 1.7 2.1 3.4.6 5.3-2.5 3.1-5 6.2-7.7 9.1-2.3 2.2-5 3.6-8.5 3.1Z" style="fill:#ebebeb;fill-rule:nonzero" transform="rotate(-1.915 -1762.979 7312.792) scale(4.58296)"/><path d="M17.893-32.495c.15.36.225.646.225.856 0 .421-1.059 1.194-3.177 2.321-2.119 1.127-3.388 2.952-3.809 5.476a30.003 30.003 0 0 0-.405 3.831c-.06 1.352-.091 3.23-.091 5.634l.046 12.664c-1.322.121-2.231-.338-2.727-1.374-.496-1.037-.744-2.607-.744-4.71 0-.992.06-2.389.18-4.192.271-4.026.406-6.685.406-7.977 0-3.035-.248-5.04-.744-6.017-.495-.976-1.855-2.02-4.078-3.132C1.052-30.107.09-30.933.09-31.594c0-.541.586-.992 1.758-1.352 1.172-.361 2.824-.691 4.958-.992 2.373.121 4.161.226 5.363.316 3.605.3 5.513.676 5.724 1.127Z" style="fill:#ebebeb;fill-rule:nonzero" transform="matrix(14.86505 0 0 14.86504 2825.69 886.478)"/><path d="M35.515-3.065c-.571-.09-.946-.526-1.127-1.307-.18-.781-.27-1.953-.27-3.515v-1.735c0-.586.015-1.18.045-1.781 0-3.786-.496-6.355-1.487-7.707-.842-1.171-2.134-1.757-3.876-1.757-2.044 0-3.441 1.547-4.192 4.642-.33 1.352-.601 3.898-.811 7.639-.21 3.741-.661 5.611-1.352 5.611-.09 0-.226-.03-.406-.09-.631.181-1.059-.18-1.284-1.081-.226-.902-.338-2.284-.338-4.147 0-.901.03-2.524.09-4.867.06-2.344.09-3.636.09-3.876-.06-.842-.09-1.533-.09-2.074-.09-2.163-.135-3.725-.135-4.687 0-2.133.09-3.913.27-5.341.18-1.427.496-2.366.946-2.817 1.443.331 2.509 1.623 3.2 3.876.331 1.052.857 1.683 1.578 1.893 1.502.421 3.02.827 4.552 1.217 2.133.661 3.666 1.593 4.597 2.795.421.51.849 2.103 1.285 4.777.435 2.674.653 5.198.653 7.572 0 1.953-.15 3.523-.451 4.71-.3 1.186-.796 1.87-1.487 2.05Z" style="fill:#ebebeb;fill-rule:nonzero" transform="translate(2884.622 821.342) scale(12.82665)"/><path d="M57.239-22.67c.45 1.322.676 2.479.676 3.47 0 1.142-.346 1.938-1.037 2.389-.541.36-1.367.541-2.479.541a14.04 14.04 0 0 1-1.983-.135c-.21 0-.45-.015-.721-.046a7.347 7.347 0 0 0-.811-.045c-1.923 0-3.41.436-4.462 1.307-.931.782-1.397 1.743-1.397 2.885 0 .451.06.841.18 1.172.331.961.804 1.652 1.42 2.073.616.421 1.344.631 2.186.631.871 0 1.893-.188 3.064-.563 1.172-.376 2.314-.759 3.426-1.15 0 1.623-.519 2.892-1.555 3.809-1.037.916-2.351 1.374-3.944 1.374-1.923 0-3.711-.616-5.363-1.848-1.863-1.382-3.2-3.305-4.011-5.768-.481-1.443-.721-3.05-.721-4.823 0-3.335.811-6.19 2.433-8.563 1.773-2.614 4.087-3.921 6.941-3.921 1.773 0 3.38.616 4.823 1.848 1.442 1.231 2.554 3.019 3.335 5.363Zm-7.707 1.442c.12.03.3.045.541.045.931 0 1.397-.466 1.397-1.397 0-.691-.256-1.337-.766-1.938-.601-.691-1.307-1.037-2.119-1.037-.631 0-1.104.143-1.419.429-.316.285-.474.668-.474 1.149 0 .601.256 1.172.767 1.712.51.541 1.201.887 2.073 1.037Z" style="fill:#ebebeb;fill-rule:nonzero" transform="translate(3015.96 795.42) scale(10.38)"/><path d="M103.255-22.129c0 .24.421 2.358 1.262 6.355.421 1.983.631 3.635.631 4.957 0 2.314-.466 4.222-1.397 5.724-1.142 1.863-3.065 3.245-5.769 4.147-.691.18-1.63.353-2.817.518a25.668 25.668 0 0 1-3.538.248c-1.112 0-2.118-.098-3.02-.293-.901-.196-1.622-.519-2.163-.969-.691-.601-1.172-1.247-1.442-1.938-.271-.691-.406-1.488-.406-2.389 0-.451.105-1.592.316-3.425.12-1.052.18-1.818.18-2.299v-.541c0-.21-.03-.525-.09-.946a134.047 134.047 0 0 1-.406-3.11c-.36-2.975-.541-5.559-.541-7.752 0-3.035.286-5.468.857-7.301.721-2.284 1.9-3.613 3.538-3.989 1.637-.376 3.207-.563 4.709-.563 3.576 0 6.19 1.247 7.843 3.74 1.502 2.254 2.253 5.529 2.253 9.826Zm-6.715 0c1.021-.541 1.78-1.172 2.276-1.893.495-.721.743-1.473.743-2.254 0-1.142-.518-2.141-1.555-2.997-1.036-.856-2.291-1.284-3.763-1.284-.661 0-1.412.112-2.253.338a3.473 3.473 0 0 0-2.006 1.397 4.021 4.021 0 0 0-.744 2.366c0 1.262.451 2.419 1.352 3.47.902 1.052 2.014 1.578 3.336 1.578.811 0 1.682-.241 2.614-.721Zm.495 16.856c1.292-.751 2.276-1.668 2.952-2.749.677-1.082 1.015-2.164 1.015-3.245 0-1.353-.504-2.494-1.51-3.426-1.007-.931-2.412-1.397-4.214-1.397-.571 0-1.382.098-2.434.293-1.052.195-1.946.804-2.682 1.825-.736 1.022-1.104 2.209-1.104 3.561 0 .571.09 1.157.27 1.758.361 1.201 1.075 2.088 2.141 2.659 1.067.571 2.306.856 3.719.856.631 0 1.246-.045 1.847-.135Z" style="fill:#ebebeb;fill-rule:nonzero" transform="matrix(20.18038 0 0 20.18036 1130.751 1775.985)"/><path d="M119.21-5.138c-.241.03-.406.045-.496.045-3.005 0-5.649-1.562-7.932-4.687-2.164-2.975-3.245-6.25-3.245-9.825 0-2.524.601-4.658 1.802-6.4 1.383-1.983 3.426-3.275 6.13-3.876a11.824 11.824 0 0 1 2.389-.271c2.914 0 5.213 1.337 6.895 4.011 1.503 2.374 2.254 5.304 2.254 8.789 0 3.245-.646 6.024-1.938 8.338-1.442 2.584-3.395 3.876-5.859 3.876Zm-.271-4.417c1.773-.42 3.125-1.337 4.057-2.749.841-1.262 1.262-2.764 1.262-4.507 0-2.344-.676-4.469-2.029-6.377-1.352-1.908-3.019-2.862-5.002-2.862-.391 0-.812.045-1.262.135-1.653.39-2.922 1.352-3.809 2.884-.886 1.533-1.329 3.275-1.329 5.228 0 2.284.541 4.222 1.622 5.814 1.202 1.773 2.81 2.66 4.823 2.66.45 0 1.006-.076 1.667-.226Z" style="fill:#ebebeb;fill-rule:nonzero" transform="matrix(17.46927 0 0 17.46924 1383.425 1732.628)"/><path d="M141.294-5.138c-.24.03-.406.045-.496.045-3.004 0-5.648-1.562-7.932-4.687-2.163-2.975-3.245-6.25-3.245-9.825 0-2.524.601-4.658 1.803-6.4 1.382-1.983 3.425-3.275 6.129-3.876a11.831 11.831 0 0 1 2.389-.271c2.914 0 5.213 1.337 6.896 4.011 1.502 2.374 2.253 5.304 2.253 8.789 0 3.245-.646 6.024-1.938 8.338-1.442 2.584-3.395 3.876-5.859 3.876Zm-.27-4.417c1.772-.42 3.124-1.337 4.056-2.749.841-1.262 1.262-2.764 1.262-4.507 0-2.344-.676-4.469-2.028-6.377-1.352-1.908-3.02-2.862-5.003-2.862-.391 0-.811.045-1.262.135-1.653.39-2.922 1.352-3.808 2.884-.887 1.533-1.33 3.275-1.33 5.228 0 2.284.541 4.222 1.623 5.814 1.201 1.773 2.809 2.66 4.822 2.66.451 0 1.007-.076 1.668-.226Z" style="fill:#ebebeb;fill-rule:nonzero" transform="matrix(-15.11249 -5.11535 5.11535 -15.11248 6001.098 1951.46)"/><path d="M168.787-15.91v2.524c0 2.614-.151 4.507-.451 5.679-.481 1.833-1.457 3.44-2.93 4.823-.841.781-1.742 1.367-2.704 1.757-.961.391-1.908.586-2.839.586a6.474 6.474 0 0 1-3.538-1.014c-1.067-.676-1.886-1.6-2.456-2.772.12-.03.375-.045.766-.045.45 0 1.217.038 2.298.113 1.082.075 1.773.113 2.073.113 1.323 0 2.299-.136 2.93-.406.871-.361 1.307-1.007 1.307-1.938 0-.301-.075-.706-.225-1.217-.361-1.112-1.608-1.983-3.741-2.614-2.434-.721-4.402-2.419-5.904-5.093-1.262-2.313-1.893-4.882-1.893-7.707 0-2.974.691-5.573 2.073-7.797 1.502-2.404 3.531-3.816 6.084-4.236 1.052-.181 1.999-.271 2.84-.271 2.614 0 4.432.901 5.453 2.704.812 1.412 1.217 3.651 1.217 6.716 0 1.021-.06 2.659-.18 4.912-.12 2.254-.18 3.981-.18 5.183Zm-7.212.496c1.683-.24 2.945-.856 3.786-1.848.751-.871 1.127-1.983 1.127-3.335 0-2.223-.826-4.492-2.479-6.805-1.652-2.314-3.23-3.471-4.732-3.471-.15 0-.346.03-.586.09-1.112.301-2.081 1.337-2.907 3.11-.826 1.773-1.239 3.666-1.239 5.679 0 1.923.42 3.47 1.262 4.642.991 1.352 2.448 2.028 4.371 2.028h.496c.18 0 .481-.03.901-.09Z" style="fill:#ebebeb;fill-rule:nonzero" transform="matrix(20.16182 .86524 -.86524 20.1618 905.538 1618.893)"/><path d="M174.601-19.245c0 .451.015 1.217.045 2.299.03 1.081.045 1.908.045 2.479 0 1.772-.12 3.079-.361 3.921-.33 1.141-.931 1.772-1.803 1.893a372.42 372.42 0 0 1-.991-3.02c-.301-2.254-.451-4.732-.451-7.437 0-2.283.113-4.206.338-5.769.226-1.562.594-2.418 1.104-2.569.872.661 1.458 1.398 1.758 2.209.301.811.451 1.758.451 2.839 0 .511-.015 1.037-.045 1.578l-.09 1.577Z" style="fill:#ebebeb;fill-rule:nonzero" transform="matrix(20.16182 .86524 -.86524 20.1618 926.855 1599.33)"/><path d="M366.574-17.454c-2.326 2.562-7.771 2.362-9.367 3.164-2.557 1.285-.481 3.183 1.434 4.131 2.103 1.041 5.97 1.923 6.46 2.106 2.767 1.033-8.095 4.087-11.753 1.247-6.111-4.741-6.4-15.562-.868-20.87 4.889-4.691 12.957-1.947 14.456 4.518.296 1.276.516 4.736-.362 5.704Zm-8.133-3.774c.175.044.36.052.54.045.206-.007.416-.022.612-.087.77-.257.869-1.132.738-1.82-.211-1.105-1.139-2.147-2.248-2.4-.842-.191-1.991-.04-2.363.865-.084.203-.105.429-.119.648-.017.268.084.639.192.879.474 1.06 1.54 1.679 2.648 1.87Z" style="fill:#ebebeb;fill-rule:nonzero" transform="matrix(12.73778 -.32443 .32443 12.7378 93.824 1783.945)"/><path d="M243.828-12.236c0 2.464-1.067 7.594-3.2 9.306-2.133 1.713-4.537 2.569-7.211 2.569a9.609 9.609 0 0 1-3.561-.676c-2.133-.841-4.086-2.809-5.859-5.904-1.863-3.245-2.794-6.565-2.794-9.96 0-3.906.406-7.001 1.217-9.285 1.021-2.854 2.854-5.213 5.498-7.076 1.022-.721 2.066-1.254 3.133-1.6a10.408 10.408 0 0 1 3.222-.518c2.103 0 3.996.646 5.679 1.938 1.683 1.292 2.809 2.96 3.38 5.003-.12.03-.3.045-.541.045-.661 0-2.61 1.134-5.645-.248-1.442-.661-2.704-.992-3.785-.992-1.172 0-2.374.361-3.606 1.082-2.193 1.322-2.085 1.3-2.716 3.583-.391 1.412-.586 3.936-.586 7.572 0 3.245.331 5.784.992 7.617.901 2.464 5.403 3.206 6.693 2.547.91-.464 1.784-1.226 4.308-3.299 1.292-1.052 3.759-1.493 5.382-1.704Z" style="fill:#ebebeb;fill-rule:nonzero" transform="translate(-1778.848 2686.183) scale(20.8219)"/><path d="M257.935-5.138c-.241.03-.406.045-.496.045-3.005 0-5.649-1.562-7.932-4.687-2.164-2.975-3.245-6.25-3.245-9.825 0-2.524.601-4.658 1.803-6.4 1.382-1.983 3.425-3.275 6.129-3.876a11.824 11.824 0 0 1 2.389-.271c2.914 0 5.213 1.337 6.895 4.011 1.503 2.374 2.254 5.304 2.254 8.789 0 3.245-.646 6.024-1.938 8.338-1.442 2.584-3.395 3.876-5.859 3.876Zm-.271-4.417c1.773-.42 3.125-1.337 4.057-2.749.841-1.262 1.262-2.764 1.262-4.507 0-2.344-.676-4.469-2.028-6.377-1.353-1.908-3.02-2.862-5.003-2.862-.391 0-.811.045-1.262.135-1.653.39-2.922 1.352-3.809 2.884-.886 1.533-1.329 3.275-1.329 5.228 0 2.284.541 4.222 1.622 5.814 1.202 1.773 2.81 2.66 4.823 2.66.451 0 1.006-.076 1.667-.226Z" style="fill:#ebebeb;fill-rule:nonzero" transform="matrix(-12.55922 2.73747 2.33391 10.70765 6719.249 1823.3)"/><path d="M271.591-18.614c0 1.923.023 3.726.068 5.409.045 1.682.097 3.245.157 4.687 0 1.592-.097 2.711-.293 3.358-.195.646-.608.969-1.239.969-.27 0-.481-.031-.631-.091-.601-.39-1.014-1.156-1.239-2.298-.226-1.142-.338-2.659-.338-4.552 0-.631.015-1.728.045-3.29.03-1.563.045-2.795.045-3.696 0-1.472-.008-2.847-.023-4.124a302.131 302.131 0 0 1-.022-3.538c0-2.253.075-3.688.225-4.304.15-.616.586-1.255 1.307-1.916.961.511 1.54.962 1.735 1.352.195.391.293 1.533.293 3.426 0 .811-.015 2.268-.045 4.372-.03 2.103-.045 3.515-.045 4.236Z" style="fill:#ebebeb;fill-rule:nonzero" transform="matrix(20.71312 -2.1257 2.1257 20.71311 -1858.379 3227.578)"/><path d="M277.54-18.614c0 1.923.023 3.726.068 5.409.045 1.682.097 3.245.158 4.687 0 1.592-.098 2.711-.293 3.358-.196.646-.609.969-1.24.969-.27 0-.481-.031-.631-.091-.601-.39-1.014-1.156-1.239-2.298-.226-1.142-.338-2.659-.338-4.552 0-.631.015-1.728.045-3.29.03-1.563.045-2.795.045-3.696 0-1.472-.008-2.847-.023-4.124a302.131 302.131 0 0 1-.022-3.538c0-2.253.075-3.688.225-4.304.15-.616.586-1.255 1.307-1.916.962.511 1.54.962 1.735 1.352.196.391.293 1.533.293 3.426 0 .811-.015 2.268-.045 4.372-.03 2.103-.045 3.515-.045 4.236Z" style="fill:#ebebeb;fill-rule:nonzero" transform="matrix(20.03865 0 0 23.01434 -1681.628 2672.058)"/><path d="M297.551-22.67c.451 1.322.676 2.479.676 3.47 0 1.142-.345 1.938-1.036 2.389-.541.36-1.367.541-2.479.541a14.04 14.04 0 0 1-1.983-.135 6.38 6.38 0 0 1-.721-.046 7.365 7.365 0 0 0-.812-.045c-1.923 0-3.41.436-4.462 1.307-.931.782-1.397 1.743-1.397 2.885 0 .451.06.841.181 1.172.33.961.803 1.652 1.419 2.073.616.421 1.345.631 2.186.631.872 0 1.893-.188 3.065-.563 1.172-.376 2.314-.759 3.425-1.15 0 1.623-.518 2.892-1.555 3.809-1.036.916-2.351 1.374-3.943 1.374-1.923 0-3.711-.616-5.364-1.848-1.862-1.382-3.2-3.305-4.011-5.768-.481-1.443-.721-3.05-.721-4.823 0-3.335.811-6.19 2.434-8.563 1.773-2.614 4.086-3.921 6.941-3.921 1.772 0 3.38.616 4.822 1.848 1.442 1.231 2.554 3.019 3.335 5.363Zm-7.707 1.442c.12.03.301.045.541.045.932 0 1.397-.466 1.397-1.397 0-.691-.255-1.337-.766-1.938-.601-.691-1.307-1.037-2.118-1.037-.631 0-1.104.143-1.42.429-.315.285-.473.668-.473 1.149 0 .601.255 1.172.766 1.712.511.541 1.202.887 2.073 1.037Z" style="fill:#ebebeb;fill-rule:nonzero" transform="translate(-551.584 2586.33) scale(16.13093)"/><path d="M314.948-10.276c0 1.653-.601 2.96-1.803 3.921-1.081.871-2.433 1.307-4.056 1.307-1.232 0-2.328-.3-3.29-.901-1.532-.902-2.764-2.224-3.696-3.966-1.051-1.953-1.577-4.162-1.577-6.626 0-4.206.946-7.541 2.839-10.005 1.683-2.164 3.666-3.245 5.949-3.245 1.323 0 2.494.398 3.516 1.194 1.022.796 1.728 1.931 2.118 3.403-2.844-.518-3.945-1.115-7.282.27-1.592.661-2.331 2.868-2.331 6.594 0 3.185.42 5.453 1.262 6.805.721 1.172 1.833 1.758 3.335 1.758.871 0 3.694-.088 5.016-.509Z" style="fill:#ebebeb;fill-rule:nonzero" transform="matrix(14.76248 2.77429 -2.7743 14.76248 -155.194 1774.595)"/><path d="M323.962-2.524c-.27.03-.466.045-.586.045-1.803 0-3.064-.916-3.786-2.749-.51-1.322-.766-3.35-.766-6.085 0-.961.015-1.892.045-2.794l.09-2.659c0-1.172-.195-2.449-.585-3.831-.872-3.095-7.744-5.945-7.744-6.426 0-.631-.037-1.292.293-1.78.808-1.195 6.97-.042 7.451-.583.21-.54.458-1.104.743-1.69a3.746 3.746 0 0 1 1.285-1.464c1.081.39 1.833.811 2.253 1.262.571.63.856 1.562.856 2.794.451.36 3.106 1.787 3.301 2.253.195.466.293.969.293 1.51 0 .661-.128 1.292-.383 1.893s-3.083.732-3.413 1.003c-.361.871-.421.95-.586 1.656-.165.706-.323 1.653-.473 2.84-.151 1.186-.226 2.171-.226 2.952 0 1.893.286 3.65.857 5.273.57 1.622 1.171 3.26 1.802 4.913 0 .36-.045.653-.135.878-.09.226-.285.489-.586.789Z" style="fill:#ebebeb;fill-rule:nonzero" transform="rotate(3.292 -40869.912 -33294.635) scale(20.8219)"/><path d="M330.542-19.245c0 .451.015 1.217.045 2.299a92.9 92.9 0 0 1 .046 2.479c0 1.772-.121 3.079-.361 3.921-.331 1.141-.931 1.772-1.803 1.893a372.42 372.42 0 0 1-.991-3.02c-.301-2.254-.451-4.732-.451-7.437 0-2.283.113-4.206.338-5.769.225-1.562.593-2.418 1.104-2.569.872.661 1.457 1.398 1.758 2.209.3.811.451 1.758.451 2.839 0 .511-.015 1.037-.045 1.578l-.091 1.577Z" style="fill:#ebebeb;fill-rule:nonzero" transform="matrix(20.6866 1.18979 -.9959 17.31551 -1924.944 2356.642)"/><path d="M345.911-27.718c.271.27.406.977.406 2.118 0 2.945-.706 6.641-2.118 11.088-1.503 4.717-2.9 7.075-4.192 7.075-1.142 0-2.148-.901-3.02-2.704-.661-1.412-1.352-3.733-2.073-6.963a656.678 656.678 0 0 1-2.073-9.622c.24-.061.391-.091.451-.091.33 0 1.036 1.082 2.118 3.245 1.082 2.164 2.614 3.245 4.597 3.245 1.923 0 3.305-1.096 4.146-3.29 1.022-2.644 1.608-4.011 1.758-4.101Z" style="fill:#ebebeb;fill-rule:nonzero" transform="matrix(20.78755 1.1956 -.86598 15.0565 -1942.667 2244.246)"/><path d="M361.075-14.66c-1.664 0-3.315-.924-4.913-.828-2.855.173-1.633 3.594-.277 5.623 1.304 1.951 4.107 4.318 4.156 4.839.238 2.501-3.035 1.06-6.693-1.78-6.111-4.741-6.4-15.562-.868-20.87 4.889-4.691 11.636-1.489 14.456 4.518 1.602 3.413-.488 7.679-1.399 8.092-1.441.654-2.955.621-4.462.406Zm-2.634-6.568c.175.044.36.052.54.045.206-.007.416-.022.612-.087.77-.257.869-1.132.738-1.82-.211-1.105-1.139-2.147-2.248-2.4-.842-.191-1.991-.04-2.363.865-.084.203-.105.429-.119.648-.017.268.084.639.192.879.474 1.06 1.54 1.679 2.648 1.87Z" style="fill:#ebebeb;fill-rule:nonzero" transform="matrix(8.99275 -9.59028 9.59029 8.99276 2424.589 5890.699)"/></svg>