<svg xmlns="http://www.w3.org/2000/svg" xml:space="preserve" style="fill-rule:evenodd;clip-rule:evenodd;stroke-linecap:round;stroke-linejoin:round;stroke-miterlimit:1.5" viewBox="0 0 1493 450"><path d="M13115.4 4116.15h451.051v451.051H13115.4z" style="fill:none" transform="matrix(3.30959 0 0 .99767 -43406.5 -4106.562)"/><path d="M13300.7 5038.99c9.7 9.7 29.5 14.55 59.6 14.55 30 0 49.8-4.85 59.5-14.55 6.6-6.62 10-16.15 10-28.6v-75.89h31.1v78.93c0 17.57-5.5 31.85-16.5 42.86-14.9 14.94-43 22.42-84.1 22.42-41.2 0-69.3-7.48-84.2-22.42-11-11.01-16.5-25.29-16.5-42.86v-78.93h31.3v75.89c0 6.55.7 12.1 2.3 16.66 1.6 4.55 4.1 8.54 7.5 11.94Zm198 36.47v-.59l87-70.28-85.3-69.4v-.69h44l65.9 55.44 66.6-55.44h42.5v.69l-85.6 69 87.2 70.68v.59h-44.1l-67.4-56.52-68.3 56.52h-42.5Zm564.5-70.48c0 19.99-6.1 36.04-18.2 48.17-14.9 14.87-42 22.31-81.5 22.31h-103.1V4934.5h103.1c39.4 0 66.6 7.47 81.5 22.41 12.1 12.12 18.2 28.15 18.2 48.07Zm-171.6 45.12h71.3c29.4 0 48.8-4.62 58-13.86 7.2-7.21 10.8-17.63 10.8-31.26 0-13.57-3.6-23.95-10.8-31.16-9.3-9.31-28.6-13.96-58-13.96h-71.3v90.24Zm253.2-58.39h149.1v24.97h-149.1v33.42h152v25.36h-183V4934.5h183v25.36h-152v31.85Zm297.4 62.62c18.7 0 32.3-.72 40.7-2.17 8.4-1.44 14.1-3.67 17.1-6.68 2.6-2.55 3.9-5.87 3.9-9.93 0-4.26-1.2-7.53-3.5-9.83-1.5-1.57-4-2.82-7.3-3.73-3.3-.92-9.2-1.77-17.6-2.56-8.4-.79-20.9-1.64-37.5-2.55-18.5-.92-33.3-2.14-44.4-3.64-11.1-1.51-19.4-3.3-25-5.36-5.6-2.06-10.1-4.77-13.5-8.11-5.3-5.37-8-13.24-8-23.59 0-11.8 3.3-20.97 9.8-27.53 3.6-3.54 8.1-6.47 13.7-8.79 5.6-2.33 13.9-4.23 24.9-5.71 10.9-1.47 24.3-2.21 40.2-2.21 36.6 0 65.8 4.36 87.5 13.08v26.34c-10.8-4.59-24.3-8.35-40.5-11.3-16.1-2.95-31.8-4.43-47-4.43-17.8 0-30.6.72-38.5 2.17-7.8 1.44-13.1 3.47-15.7 6.09-2.3 2.29-3.4 5.47-3.4 9.54 0 3.73 1 6.62 3 8.65 2.3 2.29 7.4 4.08 15.2 5.35 7.8 1.28 22.6 2.45 44.4 3.49 19.6.99 35.2 2.22 46.6 3.69 11.4 1.47 19.9 3.23 25.4 5.26 5.6 2.03 10.1 4.75 13.5 8.16 5.8 5.77 8.6 13.89 8.6 24.38 0 11.92-3.2 21.16-9.8 27.72-2.7 2.68-6 5.04-9.9 7.07-3.9 2.04-9 3.92-15.3 5.66-6.2 1.73-14.2 3.04-23.9 3.93-9.7.88-20.9 1.33-33.7 1.33-19.3 0-37.9-1.43-55.7-4.28-17.9-2.85-32.3-6.67-43.2-11.45v-26.35c10.4 5.05 25.4 9.36 44.7 12.93 19.4 3.57 37.5 5.36 54.2 5.36Zm145.8-119.83h31.161v140.964H14588zm179.2 62.81h118.6v16.12c0 9.77-1.2 18.03-3.6 24.78-2.5 6.75-6.3 12.71-11.4 17.89-15.1 15.07-44.3 22.61-87.6 22.61-13.8 0-26-.66-36.7-1.97-10.7-1.31-19.6-3.21-26.7-5.7-7.2-2.49-13-5.11-17.6-7.86a64.94 64.94 0 0 1-12.4-9.64c-12.3-12.25-18.4-28.44-18.4-48.56 0-20.18 6.1-36.4 18.4-48.66 16.6-16.64 47.8-24.97 93.4-24.97 20.2 0 38.5 1.51 54.7 4.53 16.2 3.01 28.9 6.84 38.1 11.5v28.6c-10.7-5.83-24.2-10.53-40.4-14.1-16.3-3.58-33.8-5.36-52.4-5.36-35.2 0-58.3 5.44-69.1 16.32-7.5 7.47-11.2 18.18-11.2 32.14 0 14.16 3.7 24.97 11.2 32.44 3.4 3.41 7.5 6.27 12.4 8.6 5 2.33 12.2 4.29 21.9 5.9 9.6 1.61 21.2 2.41 34.8 2.41 16.2 0 29.8-1.28 40.6-3.84 10.8-2.55 18.3-5.96 22.6-10.22 5-4.98 7.4-10.98 7.4-17.99h-86.6v-24.97Zm214.8-62.81 126.6 113.83V4934.5h31.1v140.96h-43.8l-128.8-115.8v115.8h-31V4934.5h45.9Zm314.6 140.96V4934.5h125.2c18.2 0 31.7 1.1 40.3 3.29 8.7 2.2 15.5 5.82 20.6 10.86 3.1 3.15 5.3 6.56 6.5 10.23 1.3 3.67 1.9 7.89 1.9 12.68 0 8.91-2.7 15.97-8 21.18-5.3 5.21-13.3 8.9-23.8 11.06 11.2 2.1 19.6 5.7 25.3 10.81 5.6 5.12 8.5 12.26 8.5 21.43 0 10.16-3 18.19-8.9 24.09-4.9 4.91-12.1 8.7-21.6 11.35-9.4 2.66-23.5 3.98-42.2 3.98h-123.8Zm160.9-51.7c-2.5-2.49-6.5-4.36-12-5.61-5.4-1.24-14.7-1.87-27.9-1.87h-90.2v35h94.4c11 0 19.1-.46 24.2-1.38 5.1-.91 8.7-2.45 10.9-4.62 2.8-2.81 4.2-6.58 4.2-11.3 0-4.39-1.2-7.8-3.6-10.22Zm-2.1-58c-2.2-2.23-5.9-3.83-10.9-4.82-5.1-.98-13.3-1.47-24.7-1.47h-92.4v32.63h90.2c12.8 0 21.8-.5 26.9-1.52 5-1.02 8.8-2.7 11.1-5.06 2.3-2.3 3.5-5.61 3.5-9.93 0-4.13-1.3-7.41-3.7-9.83Zm174.4 30.37 70.3-61.63h40.7v.69l-96.1 83.06v57.21h-31.2v-56.82l-95.9-83.45v-.69h41.9l70.3 61.63Zm319.2-62.42h42.3l98 141.75h-35.8l-22.5-33.22h-123l-22.6 33.22h-34.4l98-141.75Zm20.3 17.7-44.4 65.86h89.1l-44.7-65.86Zm159.2-16.91h31.161v140.964h-31.161zm295.3 70.48c0 19.99-6.1 36.04-18.2 48.17-14.9 14.87-42 22.31-81.5 22.31H16221V4934.5h103.1c39.4 0 66.6 7.47 81.5 22.41 12.1 12.12 18.2 28.15 18.2 48.07Zm-171.6 45.12h71.3c29.4 0 48.8-4.62 58-13.86 7.2-7.21 10.8-17.63 10.8-31.26 0-13.57-3.6-23.95-10.8-31.16-9.3-9.31-28.6-13.96-58-13.96h-71.3v90.24Zm253.2-58.39h149.1v24.97h-149.1v33.42h152v25.36h-183V4934.5h183v25.36h-152v31.85Zm251.7-57.21 126.6 113.83V4934.5h31.1v140.96h-43.7l-128.8-115.8v115.8h-31.1V4934.5h45.9Z" style="fill-rule:nonzero" transform="translate(-2894.082 -934.303) scale(.25916)"/><path d="M14119.6 5075.46h38.3l30.9-82.72h120.3l31 82.72h38.2l-110-291.53h-38.6l-110.1 291.53Zm81.6-116.25 30.6-81.99c5.9-15.67 6.2-34.99 6.2-51.38h21.9c0 16.39.4 35.71 6.2 51.38l30.6 81.99h-95.5Zm203.7-175.28h38.264v291.536h-38.264zm84.9 291.53h100.3c69.2 0 118.4-58.31 118.4-145.77 0-87.46-49.2-145.76-118.4-145.76h-100.3v291.53Zm38.3-33.89v-223.75h62c46.6 0 79.8 44.09 79.8 111.87 0 67.79-33.2 111.88-79.8 111.88h-62Zm196.1 33.89h44.4l66-92.93c9.5-13.48 6.2-30.61 6.2-36.07h21.8c0 5.46-3.2 22.59 6.2 36.07l66 92.93h44.5l-106.4-149.41 102.7-142.12h-44.4l-62.4 85.64c-9.4 13.11-6.2 30.61-6.2 36.07h-21.8c0-5.46 3.3-22.96-6.2-36.07l-62.3-85.64h-44.5l103.1 142.12-106.7 149.41Zm319.9-229.58h24.1v26.6c0 17.49 2.9 29.52 12.4 45.19l94.7 157.79h38.3v-291.53h-38.3v229.58h-24v-22.96c0-17.49-3.3-29.52-12.4-45.19l-94.8-161.43h-38.2v291.53h38.2v-229.58Z" style="fill-rule:nonzero" transform="matrix(.8653 0 0 .86532 -11674.897 -4071.455)"/><path d="m2437.64 1596.53-240.19 264.2 118.49 299.76 331.83 79.85 227.35-281.83-118.33-301.75-319.15-60.23Zm8.84 142.6-8.84-142.6 8.84 142.6Z" style="fill:none;stroke:#000;stroke-width:14.71px" transform="matrix(.64566 -.21338 .21338 .64567 -1808.597 -472.572)"/><path d="m2757.3 1656.88-310.82 82.25-248.14 121.51 174.42 240.52 274.51 138.63 79.19-265.64 30.84-317.27Z" style="fill:none;stroke:#000;stroke-width:14.71px" transform="matrix(.64566 -.21338 .21338 .64567 -1808.597 -472.572)"/><path d="m2726.46 1974.15-353.7 127.01 73.71-361.89 279.99 234.88Zm-409.24 185.3 55.54-58.29m502.16-143.02-148.46 16.01" style="fill:none;stroke:#000;stroke-width:14.71px" transform="matrix(.64566 -.21338 .21338 .64567 -1808.597 -472.572)"/></svg>