<svg xmlns="http://www.w3.org/2000/svg" xml:space="preserve" style="fill-rule:evenodd;clip-rule:evenodd;stroke-linecap:round;stroke-linejoin:round;stroke-miterlimit:1.5" viewBox="0 0 450 450"><path d="M13115.4 4116.15h451.051v451.051H13115.4z" style="fill:none" transform="translate(-13084.87 -4106.56) scale(.99767)"/><path d="m2437.64 1596.53-240.19 264.2 118.49 299.76 331.83 79.85 227.35-281.83-118.33-301.75-319.15-60.23Zm8.84 142.6-8.84-142.6 8.84 142.6Z" style="fill:none;stroke:#a600ff;stroke-width:15.73px" transform="translate(-1386.988 -993.849) scale(.63578)"/><path d="m2757.3 1656.88-310.82 82.25-248.14 121.51 174.42 240.52 274.51 138.63 79.19-265.64 30.84-317.27Z" style="fill:none;stroke:#a600ff;stroke-width:15.73px" transform="translate(-1386.988 -993.849) scale(.63578)"/><path d="m2726.46 1974.15-353.7 127.01 73.71-361.89 279.99 234.88Zm-409.24 185.3 55.54-58.29m502.16-143.02-148.46 16.01" style="fill:none;stroke:#a600ff;stroke-width:15.73px" transform="translate(-1386.988 -993.849) scale(.63578)"/></svg>