<svg xmlns="http://www.w3.org/2000/svg" xml:space="preserve" style="fill-rule:evenodd;clip-rule:evenodd;stroke-linejoin:round;stroke-miterlimit:2" viewBox="0 0 617 439"><path d="M617 10c0-5.519-4.481-10-10-10H10C4.481 0 0 4.481 0 10v419c0 5.519 4.481 10 10 10h597c5.519 0 10-4.481 10-10V10Z" style="fill:#fafafa"/><path d="M10 0h597c5.486 0 10 4.514 10 10v130H0V10C0 4.514 4.514 0 10 0Z" style="fill:#e5e8ee;fill-rule:nonzero"/><path d="M548 140.5c0-24.008-19.492-43.5-43.5-43.5h-393C87.492 97 68 116.492 68 140.5S87.492 184 111.5 184h393c24.008 0 43.5-19.492 43.5-43.5ZM511 222c0-5.519-4.481-10-10-10H115c-5.519 0-10 4.481-10 10v51c0 5.519 4.481 10 10 10h386c5.519 0 10-4.481 10-10v-51Zm0 99c0-5.519-4.481-10-10-10H115c-5.519 0-10 4.481-10 10v51c0 5.519 4.481 10 10 10h386c5.519 0 10-4.481 10-10v-51Z" style="fill:#fff"/><path d="m507.394 151.261-5.013-5.013a1.208 1.208 0 0 0-.855-.352h-.82a10.455 10.455 0 0 0 2.213-6.432c0-5.736-4.72-10.455-10.455-10.455-5.736 0-10.455 4.719-10.455 10.455 0 5.735 4.719 10.455 10.455 10.455 2.33 0 4.595-.779 6.432-2.213v.82c-.001.32.126.628.352.855l5.013 5.013a1.2 1.2 0 0 0 1.7 0l1.423-1.423c.47-.467.474-1.237.01-1.71Zm-14.935-5.361c-3.53-.002-6.433-2.907-6.433-6.437 0-3.531 2.906-6.437 6.437-6.437 3.53 0 6.435 2.903 6.437 6.433v.008c0 3.529-2.904 6.433-6.433 6.433h-.008Z" style="fill-rule:nonzero"/><path d="M124 123h309v37H124zm83 107h226v37H207zm0 99h226v37H207z" style="fill:#e5e8ee"/><path d="M299.632 52.71v.032c0 5.673-4.668 10.341-10.341 10.341-5.673 0-10.341-4.668-10.341-10.341 0-5.673 4.667-10.34 10.34-10.341l.161-.001c5.585 0 10.182 4.596 10.182 10.182l-.001.128Zm-4.527 0c.01-.137.015-.274.015-.411 0-3.198-2.632-5.829-5.829-5.829-3.198 0-5.829 2.631-5.829 5.829 0 .137.004.274.014.411-.01.137-.014.274-.014.411 0 3.198 2.631 5.829 5.829 5.829 3.197 0 5.829-2.631 5.829-5.829 0-.137-.005-.274-.015-.411Z" style="fill:#ea4335;fill-rule:nonzero"/><path d="M321.939 52.71v.032c0 5.673-4.668 10.341-10.341 10.341-5.673 0-10.341-4.668-10.341-10.341 0-5.673 4.667-10.34 10.34-10.341l.161-.001c5.585 0 10.182 4.596 10.182 10.182l-.001.128Zm-4.527 0c.01-.137.015-.274.015-.411 0-3.198-2.632-5.829-5.829-5.829-3.198 0-5.829 2.631-5.829 5.829 0 .137.004.274.014.411-.01.137-.014.274-.014.411 0 3.198 2.631 5.829 5.829 5.829 3.197 0 5.829-2.631 5.829-5.829 0-.137-.005-.274-.015-.411Z" style="fill:#fbbc05;fill-rule:nonzero"/><path d="M343.32 43.024v18.507c0 7.613-4.49 10.722-9.8 10.722a9.833 9.833 0 0 1-9.138-6.075l3.946-1.64a5.704 5.704 0 0 0 5.19 3.663c3.4 0 5.5-2.1 5.5-6.042v-1.488h-.158a7.023 7.023 0 0 1-5.429 2.342c-5.487-.236-9.873-4.814-9.873-10.306 0-5.493 4.386-10.071 9.873-10.307a7.148 7.148 0 0 1 5.429 2.305h.158v-1.677h4.3l.002-.004Zm-3.979 9.723c0-3.63-2.422-6.284-5.5-6.284-3.123 0-5.74 2.654-5.74 6.284a5.768 5.768 0 0 0-.007.294c0 3.182 2.566 5.824 5.747 5.915 3.079 0 5.501-2.616 5.501-6.209h-.001Z" style="fill:#4285f4;fill-rule:nonzero"/><path d="M345.994 32.176h4.415v30.21h-4.415z" style="fill:#34a853;fill-rule:nonzero"/><path d="m367.619 56.106 3.514 2.342a10.27 10.27 0 0 1-8.589 4.569l-.152.001c-5.533 0-10.086-4.553-10.086-10.086 0-.075.001-.151.003-.226 0-6.13 4.411-10.309 9.723-10.309 5.35 0 7.966 4.257 8.822 6.558l.469 1.171-13.781 5.707a5.256 5.256 0 0 0 5 3.123 5.89 5.89 0 0 0 5.077-2.85Zm-10.82-3.713 9.212-3.825a3.996 3.996 0 0 0-3.825-2.184c-3.002.136-5.398 2.644-5.398 5.649 0 .12.003.24.011.36Z" style="fill:#ea4335;fill-rule:nonzero"/><path d="M262.236 50.03v-4.376h14.738c.153.871.226 1.755.218 2.64 0 3.281-.9 7.339-3.788 10.23a14.643 14.643 0 0 1-11.163 4.49c-8.823.005-16.118-7.185-16.24-16.007.122-8.822 7.417-16.012 16.24-16.007a15.256 15.256 0 0 1 10.968 4.411l-3.086 3.086a11.15 11.15 0 0 0-7.887-3.123c-6.298.001-11.481 5.184-11.481 11.482l.001.151-.001.151c0 6.298 5.183 11.481 11.481 11.482a10.716 10.716 0 0 0 8.083-3.2 9.064 9.064 0 0 0 2.37-5.415l-10.453.005Z" style="fill:#4285f4;fill-rule:nonzero"/><path d="m151.998 257.02-1.5-4.223h-6.773l-1.475 4.223H139l6.474-17.22h3.3l6.449 17.22h-3.225Zm-7.349-6.873h4.924l-2.449-7-2.475 7ZM165.748 239h2.9v18.02h-2.9v-1.55a4.731 4.731 0 0 1-3.874 1.85c-3.169-.033-5.758-2.649-5.758-5.819 0-.11.003-.219.009-.329a5.41 5.41 0 0 1-.011-.36c0-3.151 2.584-5.748 5.735-5.763a4.686 4.686 0 0 1 3.9 1.824l-.001-7.873Zm-.05 12.146a3.408 3.408 0 0 0-3.374-3.4 3.316 3.316 0 0 0-3.274 3.4l-.002.111a3.38 3.38 0 0 0 3.276 3.364 3.416 3.416 0 0 0 3.375-3.4l-.001-.075Zm-13.7 104.874-1.5-4.223h-6.773l-1.475 4.223H139l6.474-17.22h3.3l6.449 17.22h-3.225Zm-7.349-6.873h4.924l-2.449-7-2.475 7ZM165.748 338h2.9v18.02h-2.9v-1.55a4.731 4.731 0 0 1-3.874 1.85c-3.169-.033-5.758-2.649-5.758-5.819 0-.11.003-.219.009-.329a5.41 5.41 0 0 1-.011-.36c0-3.151 2.584-5.748 5.735-5.763a4.686 4.686 0 0 1 3.9 1.824l-.001-7.873Zm-.05 12.146a3.408 3.408 0 0 0-3.374-3.4 3.316 3.316 0 0 0-3.274 3.4l-.002.111a3.38 3.38 0 0 0 3.276 3.364 3.416 3.416 0 0 0 3.375-3.4l-.001-.075Z" style="fill-rule:nonzero"/></svg>