<svg xmlns="http://www.w3.org/2000/svg" width="65" height="40"><path d="M.824 29.524h4.663V5.01H.824v24.514Zm16.064.514c5.452 0 9.189-4.046 9.189-9.291 0-5.246-3.737-9.292-9.189-9.292-5.451 0-9.188 4.046-9.188 9.292 0 5.245 3.737 9.291 9.188 9.291Zm0-3.566c-2.88 0-4.457-2.297-4.457-5.725 0-3.429 1.577-5.76 4.457-5.76 2.846 0 4.457 2.331 4.457 5.76 0 3.428-1.61 5.725-4.457 5.725Zm19.105 9.052c2.606 0 4.869-.617 6.343-1.989 1.303-1.2 2.091-2.88 2.091-5.348V11.935h-4.491v1.852h-.069c-1.063-1.475-2.674-2.332-4.868-2.332-4.457 0-7.612 3.36-7.612 8.606 0 5.314 3.84 8.4 7.749 8.4 2.228 0 3.566-.891 4.594-2.057h.103v1.92c0 2.4-1.269 3.668-3.909 3.668-2.16 0-3.154-.857-3.531-1.954h-4.629c.48 3.429 3.429 5.486 8.229 5.486Zm-.069-10.8c-2.4 0-3.977-1.749-3.977-4.732 0-2.948 1.577-4.8 3.943-4.8 2.812 0 4.183 2.195 4.183 4.766 0 2.606-1.2 4.766-4.149 4.766Zm19.837 5.314c5.451 0 9.189-4.046 9.189-9.291 0-5.246-3.738-9.292-9.189-9.292-5.451 0-9.189 4.046-9.189 9.292 0 5.245 3.738 9.291 9.19 9.291Zm0-3.566c-2.88 0-4.457-2.297-4.457-5.725 0-3.429 1.577-5.76 4.457-5.76 2.846 0 4.457 2.331 4.457 5.76 0 3.428-1.611 5.725-4.457 5.725Z"/></svg>