<svg xmlns="http://www.w3.org/2000/svg" xml:space="preserve" style="fill-rule:evenodd;clip-rule:evenodd;stroke-linecap:round;stroke-linejoin:round;stroke-miterlimit:1.5" viewBox="0 0 450 450"><path d="M13115.4 4116.15h451.051v451.051H13115.4z" style="fill:none" transform="translate(-13084.84 -4106.56) scale(.99767)"/><path d="m2430.6 1619.12-177.67 132.25-27.42 193.15 52.83 171.5 195.29 135.03 157.81-17.33 202.72-132.92 31.25-215.72-49.38-169.48-197.93-116.31-187.5 19.83Zm85.25 129.36-84.43-129.36 84.43 129.36Zm-141.69 206.57-147.65-9.48 147.65 9.48Zm159.65 196.85-60.18 98.15 60.18-98.15Z" style="fill:none;stroke:#a600ff;stroke-width:15.1px" transform="translate(-1461.221 -1049.782) scale(.66243)"/><path d="m2543.06 2162.99 61.78 47.87-61.78-47.87Zm43.96-335.64-54.09 91.26 54.09-91.26Z" style="fill:none;stroke:#a600ff;stroke-width:15.1px" transform="translate(-1310.286 -1123.352) scale(.66243)"/><path d="m2760.02 1808.56 10.89 242.75-236.62 100.59-159.13-195.79 140.69-207.63 244.17 60.08Z" style="fill:none;stroke:#a600ff;stroke-width:15.1px" transform="translate(-1461.221 -1049.782) scale(.66243)"/></svg>